<mxfile host="app.diagrams.net" modified="2023-10-14T10:30:59.149Z" agent="Mozilla/5.0 (Windows NT 10.0; Win64; x64; rv:109.0) Gecko/20100101 Firefox/118.0" etag="7GJiNMKorS9yE07ZYOwP" version="22.0.4" type="device">
  <diagram name="Landpage (Unlogged)" id="7BT9Ph9FX4Y6p1EpOXSM">
    <mxGraphModel dx="830" dy="442" grid="1" gridSize="10" guides="1" tooltips="1" connect="1" arrows="1" fold="1" page="1" pageScale="1" pageWidth="827" pageHeight="1169" math="0" shadow="0">
      <root>
        <mxCell id="ZEkZ2hJIipyatHiksb2i-0" />
        <mxCell id="ZEkZ2hJIipyatHiksb2i-1" parent="ZEkZ2hJIipyatHiksb2i-0" />
        <mxCell id="ZEkZ2hJIipyatHiksb2i-2" value="" style="rounded=0;whiteSpace=wrap;html=1;" parent="ZEkZ2hJIipyatHiksb2i-1" vertex="1">
          <mxGeometry x="90" y="90" width="620" height="940" as="geometry" />
        </mxCell>
        <mxCell id="ZEkZ2hJIipyatHiksb2i-3" value="" style="rounded=0;whiteSpace=wrap;html=1;" parent="ZEkZ2hJIipyatHiksb2i-1" vertex="1">
          <mxGeometry x="90" y="90" width="620" height="50" as="geometry" />
        </mxCell>
        <mxCell id="ZEkZ2hJIipyatHiksb2i-5" value="&lt;div&gt;banner&lt;/div&gt;" style="text;html=1;strokeColor=none;fillColor=none;align=center;verticalAlign=middle;whiteSpace=wrap;rounded=0;" parent="ZEkZ2hJIipyatHiksb2i-1" vertex="1">
          <mxGeometry x="80" y="80" width="60" height="30" as="geometry" />
        </mxCell>
        <mxCell id="ZEkZ2hJIipyatHiksb2i-10" value="footpage" style="rounded=0;whiteSpace=wrap;html=1;" parent="ZEkZ2hJIipyatHiksb2i-1" vertex="1">
          <mxGeometry x="90" y="970" width="620" height="60" as="geometry" />
        </mxCell>
        <mxCell id="ZEkZ2hJIipyatHiksb2i-22" value="Logo" style="rounded=1;whiteSpace=wrap;html=1;" parent="ZEkZ2hJIipyatHiksb2i-1" vertex="1">
          <mxGeometry x="110" y="102.5" width="60" height="25" as="geometry" />
        </mxCell>
        <mxCell id="ZEkZ2hJIipyatHiksb2i-23" value="Language" style="rounded=1;whiteSpace=wrap;html=1;" parent="ZEkZ2hJIipyatHiksb2i-1" vertex="1">
          <mxGeometry x="180" y="102.5" width="60" height="25" as="geometry" />
        </mxCell>
        <mxCell id="ZEkZ2hJIipyatHiksb2i-24" value="Currency" style="rounded=1;whiteSpace=wrap;html=1;" parent="ZEkZ2hJIipyatHiksb2i-1" vertex="1">
          <mxGeometry x="250" y="102.5" width="60" height="25" as="geometry" />
        </mxCell>
        <mxCell id="ZEkZ2hJIipyatHiksb2i-87" value="" style="rounded=0;whiteSpace=wrap;html=1;" parent="ZEkZ2hJIipyatHiksb2i-1" vertex="1">
          <mxGeometry x="140" y="540" width="110" height="150" as="geometry" />
        </mxCell>
        <mxCell id="ZEkZ2hJIipyatHiksb2i-88" value="" style="rounded=0;whiteSpace=wrap;html=1;" parent="ZEkZ2hJIipyatHiksb2i-1" vertex="1">
          <mxGeometry x="279" y="540" width="110" height="150" as="geometry" />
        </mxCell>
        <mxCell id="ZEkZ2hJIipyatHiksb2i-89" value="" style="rounded=0;whiteSpace=wrap;html=1;" parent="ZEkZ2hJIipyatHiksb2i-1" vertex="1">
          <mxGeometry x="440" y="540" width="110" height="150" as="geometry" />
        </mxCell>
        <mxCell id="ZEkZ2hJIipyatHiksb2i-90" value="" style="rounded=0;whiteSpace=wrap;html=1;" parent="ZEkZ2hJIipyatHiksb2i-1" vertex="1">
          <mxGeometry x="570" y="540" width="110" height="150" as="geometry" />
        </mxCell>
        <mxCell id="ZEkZ2hJIipyatHiksb2i-91" value="" style="rounded=0;whiteSpace=wrap;html=1;" parent="ZEkZ2hJIipyatHiksb2i-1" vertex="1">
          <mxGeometry x="140" y="750" width="110" height="150" as="geometry" />
        </mxCell>
        <mxCell id="ZEkZ2hJIipyatHiksb2i-92" value="" style="rounded=0;whiteSpace=wrap;html=1;" parent="ZEkZ2hJIipyatHiksb2i-1" vertex="1">
          <mxGeometry x="279" y="750" width="110" height="150" as="geometry" />
        </mxCell>
        <mxCell id="ZEkZ2hJIipyatHiksb2i-93" value="" style="rounded=0;whiteSpace=wrap;html=1;" parent="ZEkZ2hJIipyatHiksb2i-1" vertex="1">
          <mxGeometry x="440" y="750" width="110" height="150" as="geometry" />
        </mxCell>
        <mxCell id="ZEkZ2hJIipyatHiksb2i-94" value="" style="rounded=0;whiteSpace=wrap;html=1;" parent="ZEkZ2hJIipyatHiksb2i-1" vertex="1">
          <mxGeometry x="570" y="750" width="110" height="150" as="geometry" />
        </mxCell>
        <mxCell id="p4OxUN7ernDX2Dwm74FG-0" value="Log in" style="rounded=0;whiteSpace=wrap;html=1;" parent="ZEkZ2hJIipyatHiksb2i-1" vertex="1">
          <mxGeometry x="530.5" y="100" width="80" height="30" as="geometry" />
        </mxCell>
        <mxCell id="p4OxUN7ernDX2Dwm74FG-1" value="Register" style="rounded=0;whiteSpace=wrap;html=1;" parent="ZEkZ2hJIipyatHiksb2i-1" vertex="1">
          <mxGeometry x="620.5" y="100" width="80" height="30" as="geometry" />
        </mxCell>
        <mxCell id="p4OxUN7ernDX2Dwm74FG-3" value="Note: the buttons Log in and Register appear when the user is not logged in for all the pages" style="rounded=0;whiteSpace=wrap;html=1;" parent="ZEkZ2hJIipyatHiksb2i-1" vertex="1">
          <mxGeometry x="480" y="10" width="280" height="60" as="geometry" />
        </mxCell>
        <mxCell id="Ci3oL-zlfUf6QbDjgH_t-0" value="" style="rounded=0;whiteSpace=wrap;html=1;" parent="ZEkZ2hJIipyatHiksb2i-1" vertex="1">
          <mxGeometry x="440" y="290" width="110" height="180" as="geometry" />
        </mxCell>
        <mxCell id="Ci3oL-zlfUf6QbDjgH_t-1" value="" style="rounded=0;whiteSpace=wrap;html=1;fillColor=#ffe6cc;strokeColor=#d79b00;strokeWidth=2;" parent="ZEkZ2hJIipyatHiksb2i-1" vertex="1">
          <mxGeometry x="570" y="290" width="110" height="180" as="geometry" />
        </mxCell>
        <mxCell id="Ci3oL-zlfUf6QbDjgH_t-2" value="" style="rounded=0;whiteSpace=wrap;html=1;" parent="ZEkZ2hJIipyatHiksb2i-1" vertex="1">
          <mxGeometry x="530" y="290" width="20" height="20" as="geometry" />
        </mxCell>
        <mxCell id="Ci3oL-zlfUf6QbDjgH_t-3" value="" style="verticalLabelPosition=bottom;verticalAlign=top;html=1;shape=mxgraph.basic.heart;" parent="ZEkZ2hJIipyatHiksb2i-1" vertex="1">
          <mxGeometry x="530" y="290" width="20" height="20" as="geometry" />
        </mxCell>
        <mxCell id="Ci3oL-zlfUf6QbDjgH_t-4" value="" style="sketch=0;pointerEvents=1;shadow=0;dashed=0;html=1;strokeColor=none;fillColor=#505050;labelPosition=center;verticalLabelPosition=bottom;verticalAlign=top;outlineConnect=0;align=center;shape=mxgraph.office.concepts.home;" parent="ZEkZ2hJIipyatHiksb2i-1" vertex="1">
          <mxGeometry x="469.5" y="310" width="51" height="50" as="geometry" />
        </mxCell>
        <mxCell id="Ci3oL-zlfUf6QbDjgH_t-5" value="" style="rounded=0;whiteSpace=wrap;html=1;" parent="ZEkZ2hJIipyatHiksb2i-1" vertex="1">
          <mxGeometry x="440" y="394" width="110" height="80" as="geometry" />
        </mxCell>
        <mxCell id="Ci3oL-zlfUf6QbDjgH_t-6" value="&lt;font style=&quot;font-size: 10px;&quot;&gt;City, Province, Country&lt;/font&gt;" style="rounded=0;whiteSpace=wrap;html=1;" parent="ZEkZ2hJIipyatHiksb2i-1" vertex="1">
          <mxGeometry x="440" y="400" width="110" height="20" as="geometry" />
        </mxCell>
        <mxCell id="Ci3oL-zlfUf6QbDjgH_t-7" value="&lt;font style=&quot;font-size: 10px;&quot;&gt;Location&lt;/font&gt;" style="rounded=0;whiteSpace=wrap;html=1;" parent="ZEkZ2hJIipyatHiksb2i-1" vertex="1">
          <mxGeometry x="440" y="420" width="110" height="10" as="geometry" />
        </mxCell>
        <mxCell id="Ci3oL-zlfUf6QbDjgH_t-8" value="Description" style="rounded=0;whiteSpace=wrap;html=1;" parent="ZEkZ2hJIipyatHiksb2i-1" vertex="1">
          <mxGeometry x="440" y="450" width="110" height="24" as="geometry" />
        </mxCell>
        <mxCell id="Ci3oL-zlfUf6QbDjgH_t-9" value="&lt;font style=&quot;font-size: 8px;&quot;&gt;NÂº Rooms -Square metres&lt;/font&gt;" style="rounded=0;whiteSpace=wrap;html=1;" parent="ZEkZ2hJIipyatHiksb2i-1" vertex="1">
          <mxGeometry x="440" y="430" width="110" height="20" as="geometry" />
        </mxCell>
        <mxCell id="Ci3oL-zlfUf6QbDjgH_t-10" value="&lt;font style=&quot;font-size: 8px;&quot;&gt;Shared&lt;/font&gt;" style="rounded=0;whiteSpace=wrap;html=1;" parent="ZEkZ2hJIipyatHiksb2i-1" vertex="1">
          <mxGeometry x="520" y="387" width="30.5" height="10" as="geometry" />
        </mxCell>
        <mxCell id="Ci3oL-zlfUf6QbDjgH_t-11" value="" style="triangle;whiteSpace=wrap;html=1;" parent="ZEkZ2hJIipyatHiksb2i-1" vertex="1">
          <mxGeometry x="540" y="340" width="10" height="10" as="geometry" />
        </mxCell>
        <mxCell id="Ci3oL-zlfUf6QbDjgH_t-12" value="" style="triangle;whiteSpace=wrap;html=1;rotation=-180;" parent="ZEkZ2hJIipyatHiksb2i-1" vertex="1">
          <mxGeometry x="440" y="340" width="10" height="10" as="geometry" />
        </mxCell>
        <mxCell id="Ci3oL-zlfUf6QbDjgH_t-13" value="" style="ellipse;whiteSpace=wrap;html=1;" parent="ZEkZ2hJIipyatHiksb2i-1" vertex="1">
          <mxGeometry x="460" y="370" width="10" height="10" as="geometry" />
        </mxCell>
        <mxCell id="Ci3oL-zlfUf6QbDjgH_t-14" value="" style="ellipse;whiteSpace=wrap;html=1;" parent="ZEkZ2hJIipyatHiksb2i-1" vertex="1">
          <mxGeometry x="480" y="370" width="10" height="10" as="geometry" />
        </mxCell>
        <mxCell id="Ci3oL-zlfUf6QbDjgH_t-15" value="" style="ellipse;whiteSpace=wrap;html=1;" parent="ZEkZ2hJIipyatHiksb2i-1" vertex="1">
          <mxGeometry x="500" y="370" width="10" height="10" as="geometry" />
        </mxCell>
        <mxCell id="Ci3oL-zlfUf6QbDjgH_t-16" value="" style="ellipse;whiteSpace=wrap;html=1;" parent="ZEkZ2hJIipyatHiksb2i-1" vertex="1">
          <mxGeometry x="520.5" y="370" width="10" height="10" as="geometry" />
        </mxCell>
        <mxCell id="Ci3oL-zlfUf6QbDjgH_t-17" value="" style="shape=image;verticalLabelPosition=bottom;labelBackgroundColor=default;verticalAlign=top;aspect=fixed;imageAspect=0;image=data:image/png,iVBORw0KGgoAAAANSUhEUgAAAjoAAAJSCAYAAADK72/3AAAABHNCSVQICAgIfAhkiAAAAAlwSFlzAAA2XwAANl8BwcvkVwAAABl0RVh0U29mdHdhcmUAd3d3Lmlua3NjYXBlLm9yZ5vuPBoAAAAddEVYdFRpdGxlAG15IHJlZCBjaGVjayBtYXJrIC0gcG5npftX4AAAIABJREFUeJzt3XmUpGV5v/HrHoYdRFFkERWjiCvIJqiACyIGd+ICAQFBFjEswRU0aNxNEEWNO2IAETRKDBqNgIoSBJQdyQ8hUZBFkEUYtoFh7t8f1QwzMN1dXV1V9/tWXZ9zOJIEuq/kBOY7z/N2vZGZSJIkzVZELAOsDjxmmj9WAeYCy07853R/3AL8YZI/rsvMhZM2OXQkSdJUIiKAdYH1gacAfwWswcMHzKOAGHLefcD5wDeBkzLzxsX/hw4dSZL0wJh5HA+OmfUX+/MnAyvW1XXtfuCLwHsy8y5w6EiSNFYiYmljZn3aM2a6cQWwQ2Ze6dCRJGlERcSywCbAVhN/vIDOldM4+A3wfIeOJEkjIiJWBLbmwWGzBbBSaVStg+ZWF0iSpN5FxOrAK4DXAtsDK9cWNcp2nuhIktQyEfEEOsPmtXROcDy4WLo/+38YSZJaICIeAewM7AVsXpzTFuHQkSSpwSLi+cBbgTfitdRM3ebQkSSpYSLiMcBudAbO04tz2uw6h44kSQ0REX8FvBvYA1i+tmYknObDyJIkFYuIZwKHAjsByxTnjJItHDqSJBWJiOcChwGvZvjviBp1NwDreHUlSdKQRcSWwEeAbatbRtjnMnOhJzqSJA1JRKwFfBJ4M57gDNI84AmZ+RdPdCRJGrCJd04dBBwOrFqcMw6+nJl/Ad9eLknSQEXEy4HPABtUt4yJe4EnZeZ14EdGS5I0EBHxZODTwKuqW8bMsQ+MHPBER5KkvoqIlen8JNU78LNwhm0h8LTMvOKB/4YnOpIk9UlE7Az8M/C46pYx9b3FRw54oiNJ0qxFxEbA5+i8SVw1EtgsM89f/L85pyhGkqTWi4hHR8QXgPNw5FQ7+qEjBzzRkSRpxiIigP3ofOjf6sU5gpuBDTLz5of+D3xGR5KkGYiIJwHfALYpTtGD3ru0kQOe6EiS1LWI2I/Ow8arVLdokbOB5+ckg8ahI0nSNCJiXeDrwHbVLVrC/cDmmXnBZH+BDyNLkjSFiNgDuBRHThN9YaqRA57oSJK0VBMv4PwKfrJxU91A5wHk26b6izzRkSTpISLiTXROcRw5zfXO6UYOeKIjSdIiEfEY4AvAG6pbNKUzMvNF3fyFDh1JkoCIeAVwNLBmdYumdB/wnMy8rJu/2KsrSdJYi4hlI+II4BQcOW3wj92OHPBER5I0xiJiPeBEYIvaEnXpV8DWmXl/t3+DQ0eSNJYi4nV0PhvnkdUt6sqddK6srpzJ3+TVlSRprETE8hHxOeB7OHLa5JCZjhzwREeSNEYi4inAScAm1S2akR9m5it7+RsdOpKksRARO9H5AMBVq1s0IzcBz87MP/XyN3t1JUkaaRM/VfVF4Fs4ctpo315HDsDcfpZIktQkEbEa8F1g2+oW9eRfM/N7s/kCXl1JkkZSRDwJ+CHw9OoW9eQqYMPMvH02X8SrK0nSyImILYGzceS01UJg99mOHHDoSJJGTES8AfgZ8NjqFvXsyMw8ox9fyKsrSdLIiIj3Ah8DorpFPbsU2Cwz5/fji3miI0kaCRFxGPBxHDltdi+wa79GDjh0JEkjICL2Aj5a3aFZOzwzL+rnF/TqSpLUahHxSDo/ofOI6hbNypnACzNzYT+/qCc6kqS22xtHTtvNA3br98gBh44kqcUiYg6wf3WHZu3gzPz9IL6wQ0eS1GavANarjtCsfD8zvz6oL+4zOpKkVoqIZYBfAZtXt6hnNwLPysw/D+obeKIjSWqrd+DIabu9BzlywBMdSVILRcQGwIXACtUt6tnXMnPvQX8Th44kqVUmHkA+E3hedYt6dgmwZWbeNehv5NWVJKltDsKR02bzgNcPY+SAJzqSpBaJiKfSubJasbpFPXtjZn5nWN/MEx1JUitExMrAd3HktNlRwxw54ImOJKklIuIk4I3VHerZ2cA2mXnfML+pJzqSpMaLiHfjyGmzm+hcWQ115IAnOpKkhouIlwI/BpapblFPFgJ/nZk/qfjmnuhIkhorItYDTsSR02Yfrho54ImOJKmhImJF4CzgOdUt6tlP6Jzm9P2t5N3yREeS1FRfwZHTZpfReS6nbOSAQ0eS1EARcRCwa3WHenYj8IrMvK06xKsrSVKjRMQLgdOAudUt6sk9wIsz8+zqEPBER5LUIBGxLvBtHDltlcBuTRk54NCRJDVERCwPfA94bHWLenbYsD/5eDoOHUlSU3wB2Lw6Qj37emZ+ojrioXxGR5JULiLeRmfoqJ1+Bmxf8cnH03HoSJJKRcTzgZ8DyxanqDdXAFtm5i3VIUvj0JEklYmItYHzgLWrW9STW+mMnN9Vh0zGZ3QkSSUmHj4+GUdOW90HvL7JIwccOpKkOl8BtqiOUM/enpk/rY6YjkNHkjR0EXEIsFt1h3p2ZGZ+tTqiGz6jI0kaqojYHvghvpG8rX4AvKb6HVbdcuhIkoYmIp4KnAM8srpFPbkYeEFm3lEd0i2HjiRpKCJiNeBs4GnVLerJDcBzM/Pq6pCZ8BkdSdLARcQc4AQcOW11D53rqlaNHHDoSJKG4+PADtUR6tlbMvOc6oheOHQkSQMVEbsA767uUM8+mJknVkf0ymd0JEkDExGbA78AVqhuUU++lZl/Wx0xGw4dSdJATLze4dfA46pb1JOzgRdn5j3VIbPh1ZUkqe8We72DI6edrgZe2/aRAw4dSdJgfBlf79BW84BXZuYN1SH94NCRJPXVxOsddq/uUE8WAjtn5iXVIf3iMzqSpL7x9Q6td0hmfro6op8cOpKkvoiI9YFz8fUObfXVzNynOqLfHDqSpFnz9Q6tdzbwwsy8tzqk33xGR5I0K77eofVuBF4/iiMHHDqSpNnz9Q7ttQB4Y2ZeWx0yKA4dSVLPfL1D6707M8+ojhgkn9GRJPXE1zu03omZuXN1xKA5dCRJM+brHVrvUmDLzLyzOmTQvLqSJM3IxOsdvocjp61uA143DiMHHDqSpJn7MrBldYR6ksCbM/PK6pBhcehIkroWEW/D1zu02Ucy85TqiGHyGR1JUlci4rnAL4HlqlvUkx/ReVnnwuqQYXLoSJKmFRGPBs4HnlDdop78H7BZZt5aHTJsXl1Jkqa02CcfO3La6W5gx3EcOeDQkSRN74PAy6oj1LN9MvOi6ogqXl1JkiYVETsAPwCiukU9+VxmHlgdUcmhI0laqohYDzgPWL22RD06E3hJZt5XHVLJoSNJepiJDwX8b2DT6hb15Hpgk8z8U3VINZ/RkSQtzedw5LTVfcAbHDkdDh1J0hIi4i3A3tUd6tkhmfnf1RFN4dWVJGmRiHgO8Ct8I3lbHZeZu1VHNIlDR5IEQEQ8ks7Dx39V3aKeXAg8PzPvrg5pEq+uJElERADH4shpq1vpfCigI+chHDqSJIBDgVdVR6gnC4G/zczfV4c0kUNHksZcRGwLfKi6Qz37YGb+uDqiqXxGR5LGWESsS+dlnWtUt6gnpwCvSX8xn5RDR5LGVEQsC/wC2LK6RT25Atg8M2+rDmkyr64kaXwdiSOnre6k8/CxI2caDh1JGkMRsTPwd9Ud6tlemXlpdUQbeHUlSWMmIp4JnAOsXN2inhyZme+ojmgLh44kjZGIWBX4NbBBdYt68nNgu8xcUB3SFl5dSdJ4+TqOnLa6FniTI2dmHDqSNCYi4hDg9dUd6sm9wN9k5o3VIW3j1ZUkjYGI2Br4KTC3ukU92S8zv1wd0UYOHUkacRGxFp0PBVy7ukU9OSYz96yOaCuHjiSNsIiYC5wGvLC6RT05D9gqM++pDmkrn9GRpNH2cRw5bXUznedyHDmz4ImOJI2oiNgR+G51h3qyEHh5Zp5aHdJ2nuhI0giKiKcCx1R3qGfvc+T0hyc6kjRiImIlOp98/KzqFvXk5MzcsTpiVHiiI0mj5ys4ctrqcmD36ohR4tCRpBESEfsDu1R3qCd3AK/LzHnVIaPEqytJGhERsQXwC2C56hb15PWZ6cPjfeaJjiSNgIh4NPAdHDlt9U+OnMHwREeSWi4iAvgBsEN1i3pyOrB9Zt5fHTKKPNGRpPZ7F46ctvojsJMjZ3A80ZGkFouIFwA/x5d1ttF8YOvM/HV1yCjzREeSWmriuZwTceS01d85cgbPoSNJLTTxXM5xwLrVLerJVzPza9UR48ChI0nt9B7gr6sj1JNzgQOqI8aFz+hIUstExFbAz/DKqo3+DGyamX+sDhkXnuhIUotExGPwuZy2up/OT1g5cobIoSNJLbHYczmPq25RT96bmT+tjhg3Dh1Jao/3Ai+vjlBPvpOZR1RHjCOf0ZGkFoiIrek8l7NMdYtm7DJgi8y8ozpkHDl0JKnhImIN4AK8smqj24HnZubl1SHjyqsrSWown8tptQR2d+TUcuhIUrMdCmxfHaGefDwz/706Ytx5dSVJDRUR2wA/xedy2ugHwGsyc2F1yLhz6EhSA008l3MhsE51i2bsQjov6/Th4wbw6kqSGiYi5gDH48hpo+uAVzpymsOhI0nNcxjwsuoIzdidwKsy89rqED3IqytJapCIeCFwOj6X0zYLgddl5n9Uh2hJnuhIUkNExGOBb+HIaaN3OXKayaEjSQ0w8VzON4G1q1s0Y1/KzCOrI7R0Dh1Jaob3AS+tjtCM/QQ4oDpCk/MZHUkqFhEvBk7FK6u2+S3w/My8vTpEk3PoSFKhiFiTzueurFXdohm5gc6LOq+qDtHUvLqSpCKLPZfjyGmXu+l86rEjpwUcOpJU5x+AbasjNCMPvKjznOoQdcerK0kqEBEvofNcjr/hbJfDMvPj1RHqnkNHkobM53Ja65jM3LM6QjPj0JGkIZp4LudU4CXVLZqRnwHbZ+Z91SGaGY9MJWm4DseR0za/A/7GkdNOnuhI0pBExLZ0PmDO32S2xy3Alpl5RXWIeuPQkaQhiIi16DyXs2Z1i7p2H7BdZp5RHaLe+bsKSRqwiedyTsCR0zb7OnLaz6EjSYP3AeDF1RGakU9m5jHVEZo9r64kaYAi4qXAf+FvLNvkZDoPH/sL5Ahw6EjSgETE2nSey3lsdYu6dh6wTWbeVR2i/vB3GJI0ABGxDJ3nchw57XEt8GpHzmhx6EjSYHwQeFFxg7p3J/CqzLyuOkT95dWVJPVZRGwH/Bh/M9kmO2bmydUR6j//IZSkPpp4Lud4/Pdrm/yLI2d0eaIjSX3ie6xa6bfAZpl5T3WIBsPfcUhS/xyGI6dN7gF2duSMNk90JKkPImIr4OfAMsUp6t6Bmfm56ggNlkNHkmYpIlan83k5j69uUdf+MzNfUR2hwfPqSpJm7+s4ctrkBuAt1REaDoeOJM1CRBwAvKa6Q11LYI/MvLE6RMPh1ZUk9SgiNgZ+BSxf3aKuHZWZB1dHaHgcOpLUg4hYBTgfWL+6RV27GHhuZs6vDtHweHUlSb35Io6cNrmbzo+SO3LGjENHkmYoInYHdq3u0Iy8MzMvq47Q8Hl1JUkzEBEbAOcBK1e3qGunZOarqyNUw6EjSV2KiOWBc4CNqlvUteuBDTPzpuoQ1fDqSpK6dySOnDZJYHdHznhz6EhSFyLidcD+1R2akSMz89TqCNXy6kqSphERTwQuAB5V3aKuXUTnR8nvrQ5RLU90JGkKETEX+BaOnDaZD+zqyBE4dCRpOh8CnlcdoRk5LDMvrY5QM3h1JUmTiIjtgP8CorpFXfsp8NL0FzdNcOhI0lJExJp0nvNYs7pFXfsLnR8l/2N1iJrDqytJeoiICOA4HDlt83ZHjh7KoSNJD/ceYLvqCM3IiZl5QnWEmserK0laTEQ8D/gFMLe6RV27hs6V1a3VIWoeT3QkaUJEPJLOj5I7ctojgT0cOZqMQ0eSHnQ08MTqCM3IUZl5enWEmsurK0kCImJ/4F+qOzQjvwU2y8x7qkPUXA4dSWMvIjYCzgZWqG5R1+4FtsjMC6tD1GxeXUkaaxGxMnAijpy2OdyRo244dCSNu88DT6uO0Iz8Evjn6gi1g1dXksZWROxK54MB1R63Axtl5h+qQ9QODh1JYyki1gfOB1apblHXEvibzDy5OkTt4dWVpLETEcsBJ+HIaZtPOnI0Uw4dSePon4GNqyM0I6cD76+OUPt4dSVprETEq4HvV3doRv4IbJKZN1WHqH0cOpLGRkQ8HrgQWL26RV2bD2yTmedWh6idvLqSNBYiYhngBBw5bXOgI0ez4dCRNC4+CGxVHaEZOSYzv1IdoXbz6krSyIuIlwCn4m/u2uQ8YCvfY6XZcuhIGmkRsQZwEbB2dYu6dh3w3My8tjpE7efvbiSNrIgI4FgcOW1yN/AaR476xaEjaZS9E3h5dYS6lsDumfmb6hCNDq+uJI2kiHgucCawbHWLuvaBzPxQdYRGi0NH0siJiNWAC4AnVbeoaydm5s7VERo9Xl1JGkVfxpHTJucCb6mO0Ghy6EgaKRHxFuBN1R3q2jXAa/0xcg2KV1eSRkZEPBU4H1i5ukVduYvOZ+VcUB2i0eWJjqSREBHLAd/CkdMWCbzZkaNBc+hIGhUfAzapjlDX3p+Z36uO0Ojz6kpS60XEy4AfA1Hdoq58MzN3rY7QeHDoSGq1iVc8XAysVd2irvwKeHFmzq8O0Xjw6kpS230DR05bXA28zpGjYXLoSGqtiDgI2KG6Q125G3h1Zt5QHaLx4tWVpFaKiI2Ac4Dlq1vUlT0z85jqCI0fT3QktU5ErETnR8kdOe1wjCNHVRw6ktro08DTqyPUlUuAt1dHaHx5dSWpVSJiR+C71R3qyjxgs8z8XXWIxpcnOpJaIyIeD3ytukNd29uRo2oOHUmtEBFzgOOBR1W3qCv/kpknVUdIDh1JbfE+YJvqCHXlN8Ah1RES+IyOpBaIiOcBvwDmVrdoWrcCm2TmH6pDJPBER1LDRcRqwAk4ctoggT0cOWoSh46kpvsSsF51hLpyRGb+R3WEtDivriQ1VkTsAfhBc+1wJp2XdS6oDpEW59CR1EgRsT5wPrBKdYum9Wdg48y8tjpEeiivriQ1TkQsS+cVD46c5lsI7OLIUVM5dCQ10UeBTasj1JUPZ+ap1RHSZLy6ktQoEbEd8F9AVLdoWqcB22fmwuoQaTIOHUmNERFrABcDa1W3aFrX0Xku58bqEGkqXl1JapJjcOS0wQJgJ0eO2sChI6kRIuJA4BXVHerK+zLzl9URUje8upJULiI2BM4Flq9u0bROAV6T/uKhlnDoSCoVESvSeQnkM6pbNK0/0HmP1a3VIVK3vLqSVO3TOHLa4F7gjY4ctY1DR1KZiHgdsG91h7ryjsz8dXWENFNeXUkqERHrAhcBq1e3aFrfzsw3VUdIvXDoSBq6iJgD/BR4YXWLpvU7YLPMnFcdIvXCqytJFQ7FkdMGdwNvcOSozTzRkTRUEbEl8EtgbnWLprVXZn69OkKaDYeOpKGJiEcAFwJPqm7RtL6RmW+pjpBmy6srScP0JRw5bXApsH91hNQPDh1JQxERuwM7V3doWnfR+bycu6tDpH5w6EgauIh4CvD56g515aDM/J/qCKlffEZH0kBFxLLAWcBm1S2alp+Xo5HjiY6kQfsIjpw2+AOwT3WE1G+e6EgamIh4KfATIKpbNKUFwNaZeXZ1iNRvnuhIGoiIeDTwrzhy2uAfHDkaVZ7oSBqIiPgusGN1h6Z1GvCy9BcDjSiHjqS+i4i3AH6ibvP9GdgwM/9UHSINikNHUl9FxJPpfPrxKtUtmlICr8jMH1WHSIPkMzqS+iYilgGOw5HTBp925GgcOHQk9dP7gOdVR2ha59F5g7w08ry6ktQXEbEFcCa+lbzp5gGbZOaV1SHSMHiiI2nWImJl4HgcOW2wvyNH48ShI6kfPgM8pTpC0zouM4+vjpCGyasrSbMSEa8FTq7u0LSuoHNldUd1iDRMDh1JPYuItYBLgMdUt2hK9wLPy8zzq0OkYfPqStJsHIMjpw3e68jRuHLoSOpJRBwAvLy6Q9P6TzrPUEljyasrSTMWEc+g81ksK1S3aErXAxtl5p+rQ6QqnuhImpGIWA74Jo6cplsIvNmRo3Hn0JE0Ux8BnlMdoWl9MjNPr46Qqnl1JalrEfEi4HT8TVLT/QrYJjMXVIdI1Rw6kroSEY8ELgYeX92iKd0GPCcz/1AdIjWBvyuT1K0v4shpg70dOdKDHDqSphURuwA7VXdoWl/NzO9UR0hN4tWVpClFxBOBi4DVqls0pcuAzTPzruoQqUk80ZE0qYiYAxyLI6fp7gF2cuRID+fQkTSVdwPbVEdoWu/IzEuqI6Qm8upK0lJFxCbA2cCy1S2a0r9n5uuqI6SmcuhIepiIWBE4H3hadYum9Ec6P0p+S3WI1FReXUlamiNw5DTd/cAujhxpag4dSUuIiB2A/as7NK0PZeYvqyOkpvPqStIiEbEGcAmwZnWLpvQL4CWZeX91iNR0nuhIWtzXcOQ03S10rqwcOVIXHDqSAIiIfYBXV3doWntm5jXVEVJbeHUliYhYH7gAWLm6RVP6fGYeUB0htYlDRxpzETEXOAvYvLpFU7oI2CIz51eHSG3i1ZWkD+DIabq76LziwZEjzZAnOtIYi4gXAGcAy1S3aEpvzcyjqyOkNnLoSGMqIlalcx3ypOoWTemkzNypOkJqK6+upPH1ORw5Tfd7YJ/qCKnNHDrSGIqI1wO7V3doSguAnTPz9uoQqc0cOtKYiYjHAV+u7tC03p+Z51RHSG3nMzrSmImIHwPbV3doSqcBL0v/BS3Nmic60hiJiH1x5DTdjcCbHTlSf3iiI42JiHgScDGwSnWLJpXADpn54+oQaVR4oiONgYgI4BgcOU13pCNH6i+HjjQeDgJeWB2hKf0GOLQ6Qho1Xl1JIy4iNqDzws4Vq1s0qXnAJpl5ZXWINGo80ZFGWEQsA3wDR07Tvc2RIw2GQ0cabe8CtqyO0JSOzcxvVkdIo8qrK2lERcSz6Tz3sVx1iyb1O2DTzLyjOkQaVZ7oSCMoIpYF/hVHTpPdS+cVD44caYAcOtJoej+wcXWEpvSezDy/OkIadV5dSSMmIjYFzgbmVrdoUj/MzFdWR0jjwKEjjZCIWB44H3hGdYsmdT2wYWbeVB0ijQOvrqTR8mEcOU22ENjVkSMNj0NHGhER8XzgHdUdmtInMvOn1RHSOPHqShoBEbEScBHwlOoWTepXwDaZuaA6RBonnuhIo+GTOHKa7C90fpTckSMNmUNHarmIeAnw9uoOTWnvzLyqOkIaR15dSS0WEasClwBPrG7RpL6SmftWR0jjyhMdqd2OxJHTZJcBB1dHSOPMEx2ppSLir4H/rO7QpO4BNs/MS6tDpHHmiY7UQhHxKOBr1R2a0iGOHKmeQ0dqp88B61RHaFInZ+YXqyMkeXUltU5E7Ah8t7pDk/ojsFFm3lodIsmhI7VKRKwB/BZYo7pFS3U/8KLMPLM6RFKHV1dSu3wJR06T/aMjR2oWT3SkloiIXYDjqzs0qTOAl2TmwuoQSQ9y6EgtEBHrAJcCj6pu0VLdTOe5nGurQyQtyasrqR2+iiOnyfZ05EjN5NCRGi4i9gJ2qO7QpD6Xmf9RHSFp6by6khosItYG/gdYrbpFS3URsEVmzq8OkbR0nuhIzfZpHDlNdSewkyNHajaHjtRQEfEy4E3VHZrUgZn5/6ojJE3NqyupgSJiBTo/ZfXk6hYt1YmZuXN1hKTpeaIjNdNhOHKa6v+AfasjJHXHEx2pYSJiA+BiYLnqFj3MfcBWmXludYik7niiIzXPF3HkNNX7HTlSu3iiIzVIROwKHFfdoaU6Fdg+/Zem1CoOHakhIuJRwP8DHlvdooe5EdgwM2+oDpE0M15dSc3xcRw5TbWHI0dqJ090pAaIiC2Bs4CobtHDfD4zD6iOkNQbh45ULCLmAr8BNqpu0cNcBmyWmXdXh0jqjVdXUr2DcOQ00b3ALo4cqd080ZEKRcTj6ZwarFLdood5V2YeUR0haXY80ZFqfRZHThP9DPhUdYSk2fNERyoSEa8C/qO6Qw9zK50fJb+mOkTS7HmiIxWIiJWAz1V3aKn2c+RIo8OhI9X4APDE6gg9zLGZ+e3qCEn949WVNGQR8SzgAmBudYuW8Htgo8ycVx0iqX880ZGG7/M4cprmfmBXR440ehw60hBFxBuBF1Z36GE+lplnVUdI6j+vrqQhiYgV6by08wnVLVrCOcBWmbmgOkRS/3miIw3Pe3DkNM0ddK6sHDnSiPJERxqCiHgi8D/AitUtWsJbM/Po6ghJg+OJjjQcR+DIaZqTHTnS6PNERxqwiHgx8NPqDi3hOjqffnxzdYikwfJERxqgiFgGOKq6Q0tIYA9HjjQeHDrSYO0HPLs6Qks4KjNPrY6QNBxeXUkDEhGPBn4HrF7dokUuATbPzPnVIZKGwxMdaXA+jCOnSeYDuzhypPHi0JEGICKeC+xT3aElvDczL6mOkDRcXl1JfRYRq9B5aedTqlu0yKnA9um/8KSx44mO1H+fwZHTJDfT+SkrR440hnyD8kNExErACnRG4DIT//nAny8Abs3Mu+sK1WQRsSOwV3WHlrB3Zl5XHSGpxthdXUVEAOsAfwU8eeKPxf/8MV18mfnAX4BbgT8BvwLOAM7KzHkDyFYLRMQ6wMXAo6tbtMjRmfnW6ghJdUZ+6ETEqsDLgVcBm9IZNSsM6NvdD/wa+ERmfn9A30MNNDGgfwK8tLpFi1wJbJyZd1SHSKozkkMnIp5AZ9i8GngRsFxBxlnAezLzzILvrSGLiEOAT1V3aJEFwFaZeU51iKRaIzF0Jn43vRkPjpuNaouW8AXg73wQcnRFxIbAucDy1S1a5PDM/HB1hKR6rR46EbERnY/Yfw2wdnHOVL4B7JWZC6tD1F8RsQLwG+CZ1S1a5Cxgm8y8vzpEUr3W/dRVRMyhc2pzEJ1rqTbYA1guInbzX74j5+M4cppkHrCr/5xJekBrhk5ErAbsCRwAPKk4pxd/C9wF7F0dov6IiG3pDG41x99l5u/hlpj8AAAYJ0lEQVSrIyQ1R+OvriJifeBAOqciq9TW9MXrM/O71RGanYh4JJ0XRK5b3aJFvp2Zb6qOkNQsjR06EbEdcDDw10AU5/TTzcCGfoBZu0XECcDO1R1a5Bo6/1zdWh0iqVka9wqIiNg2Is6n85kkOzBaIwc6HyZ3zMRPiqmFImInHDlNksDujhxJS9OYoRMRT4+IHwCnARtX9wzYy4C3V0do5iJiXTofGaDm+FRm/rQ6QlIzlV9dRcRjgX+k85DuMqUxw3UL8FeZeVt1iLrjpx830oXAFpl5b3WIpGYqO9GJiBUi4lA6H9O+H+M1cgBWB95RHaEZORBHTpPcDeziyJE0laGf6Ez8rngX4GPA44f6zZvnDjqnOn+uDtHUIuIZwHkM7j1pmrkDMvPz1RGSmm2oJzoRsQ2dl14ehyMHOj8u/97qCE0tIpYFjseR0yQ/cuRI6sZQTnQiYiXgn/AB3KW5B1g/M6+pDtHSRcTHgEOrO7TIn4FnZ+YN1SGSmm/gJzoRsTlwPo6cyawA/EN1hJYuIl4AvKe6Q0vYy5EjqVsDO9GJiLnAYXR+EW/NqyaKLACenplXVofoQRGxKnAR7XzlyKj6cmbuVx0hqT0GcqIz8dqGM+n82LgjZ3pz6fzfSs3yGRw5TXI5cEh1hKR26fuJTkTsB3wKWKmvX3j0LQQ2ysxLq0MEEfFa4OTqDi1yH/C8zDyvOkRSu/TtRCci1oqI/wS+iCOnF3OAj1RHCCJiTeAr1R1awgccOZJ60ZcTnYh4GXACnfc4aXa2yMxzqyPGWUScAryyukOL/AJ4cWYurA6R1D6zPtGJiD2BH+LI6ZePVQeMs4jYBUdOk9wG7ObIkdSrWQ2diPggcDQ+cNxP20bEi6sjxlFErEHnAWQ1x/6ZeVV1hKT26mnoRMSyEXEM8IE+96jjo9UBY+oo4DHVEVrkhMw8oTpCUrvN+Bmdic8W+S6w3UCK9IAXZeYZ1RHjIiJeCZxS3aFFrgY2zMzbqkMktduMTnQiYh3glzhyhuHd1QHjIiIeQeenBdUMC4E3O3Ik9UPXQycingWcDWw0uBwtZoeIeHZ1xJj4JLBudYQW+WRm/qI6QtJo6OrqauJ9VacCqw28SIs7LjN3q44YZRGxDfBzIIpT1HEenQ8GvK86RNJomHboRMTjgF8Daw+lSItbADw5M6+uDhlFEbECnXdZPbW6RQDcBWySmZdXh0gaHVNeXUXEisD3ceRUmQv8fXXECPsAjpwmOcSRI6nfJj3RiYgATgLeMNQiPdSdwBMy85bqkFESERsD5+JnQDXFKZn56uoISaNnqhOdD+DIaYKVgf2rI0ZJRMzFD7pskhuAvaojJI2mpQ6diHgjcPiQWzS5AyeuEdUf7wQ2ro7QIm/JzD9XR0gaTQ8bOhGxKfAN/CmUJlkD2KM6YhRExFPxE72b5F8y80fVEZJG1xLP6ETEI4FLgceVFWky/wtskJn3V4e01cRzZ2cAW1e3CIDLgM0y8+7qEEmj66EnOh/EkdNUTwb+pjqi5fbDkdMU9wK7OHIkDdqiE52IeDpwMT6g2WTnZeZm1RFtFBHr0jlBWLW6RQC8OzP/uTpC0uhb/ETn0zhymm7TiNi2OqKlvoQjpyl+BhxRHSFpPERmPvAeq0uqY9SVUzPzZdURbRIROwMnVHcIgFvpvJX8muoQSePhgROdPSojNCPbTXzYnboQEY8BPlvdoUX2c+RIGqY5Ex+etmt1iGbk3dUBLXIU8JjqCAFwbGZ+uzpC0ngJ4AXAmdUhmpH7gfUz8/fVIU0WETsAP6zuEAC/BzbKzHnVIZLGyxzg6dURmrFlgHdURzRZRKxK5wFk1bsf2NWRI6nCHOBp1RHqyZ4Tz59o6T4BPL46QgB8LDPPqo6QNJ4cOu21InBAdUQTRcTWwNuqOwR03hD/oeoISeMrgCuAp1SHqCc3A0/IzLuqQ5oiIlYALgQ2qG4RdwAbZ+aV1SGSxtccYJXqCPXs0cBbqyMa5nAcOU1xsCNHUrUArgXWqQ5Rz64CnpKZC6pDqkXEc4Bf4yd8N8HJmbljdYQkzQFy2r9KTfZE4A3VEdUmPg/qaBw5TXA9sHd1hCRBZ+gsrI7QrB1UHdAA7wA2qY4QCeyemTdXh0gSeKIzKraIiOdWR1SJiPWBD1Z3CICjMvPU6ghJesAcYOyf7RgRB1YHVIiIAL4GrFDdIi4B3lsdIUmLm0PnYWS13xsiYq3qiAL7AttUR4j5wC6ZOb86RJIWN4fOO2jUfssB+1VHDFNEPAH4ZHWHAHhvZl5SHSFJD+XQGS37RcRy1RFD9DXgEdUR4lQ6b4mXpMZx6IyWNYE3VkcMQ0TsA2xX3SFuBvbITH+oQVIjzQH+UB2hvhr5h5Ij4onAEdUdAmCfzLyuOkKSJuOJzujZPCK2rI4YlImfsjoaWLW6RRydmd+rjpCkqcwBrgHuqw5RX43yqc6+wLbVEeJ/gYOrIyRpOpGZRMRvgWdUx6hv7gPWG7UrhYhYj85ntfgi2loLgRdm5pnVIZI0nTkT//mb0gr127KM2I+aT1xZfR1HThMc6ciR1BYOndG1b0QsXx3RR28DXlwdIS4D3l8dIUndcuiMrscCb6qO6IeIeBLwT9UdYgGwm59+LKlNHhg6F+I7r0ZR6x9KXuzKauXqFvGxzDyvOkKSZmIOQGbeTedIWqNl04h4QXXELL0deFF1hDgf+Eh1hCTN1JzF/vzXZRUapNae6kTEk4FPVHeI+cDumenHUEhqncWHjs/pjKYdI+Jx1REz5ZVVoxyemZdWR0hSLxw6o28usH91RA8OALapjhBn4es2JLVYPPAuvom3Xs8Dxunt1+PiJuDxmXlPdUg3IuIpwEXAStUtY+4u4DmZeUV1iCT1atGJTmbeC5xb2KLBeQywc3VENyJiDp0rK0dOvfc4ciS13ZyH/NenlVRoGNryUPJhwNbVEeJ04F+qIyRpthZdXQFM/CiyH+0+urbJzF9WR0wmIl5I5xfYZapbxtztwLMz8+rqEEmarYee6JxD5zkdjabGnupExGOBb+HIaYKDHTmSRsUSQyczFwBnFLVo8HaceNC3USaeyzkeWLu6RfwgM4+pjpCkfnnoiQ74nM4omwO8qzpiKd4HbFcdIW4G9q6OkKR+WuIZHYCIeAbw25ocDcF84EmZeX11CEBEvIjOuPbKqt5OmXlSdYQk9dPDTnQy8zKgEb8IaiCWB/6+OgIWPZdzAo6cJvi2I0fSKFra1RV4fTXq9ouIR1YGTDyX8018LqcJ/kQ7Pz1bkqbl0BlPq1L/C9v7gZcWN6hjn8y8uTpCkgbhYc/oAETEOsC1w8/REN0IrJeZdw/7G0fEi+mM6cmGtobnmMzcszpCkgZlqb/QZOZ1wP8MuUXD9Vhg6L/ARcSadJ7LceTUuxo4uDpCkgZpql9svL4afe+MiLnD+maLPZez1rC+pyaVwJ6ZeXt1iCQNkkNnvK0HHDDE7/cPwLZD/H6a3Bcy8/TqCEkatKU+owMQEY+g8wFiQ/sdv0rcATwjM/84yG8SEdsCP8Erqya4EtgoM++qDpGkQZv0F52JI+1zh9iiGqsAnx3kN4iIZwL/hiOnCRYCuztyJI2L6X7h8fpqPLw2Il49iC8cEesCPwZKP7dHixyRmWdVR0jSsEx6dQUQEVsDvxhejgpdTecK685+fcGJDyU8E3hmv76mZuW3wKaZOb86RJKGZboTnbPpPMOh0fcE4B/79cUiYnng+zhymmIBsJsjR9K4mXLoZOZ9eKIzTg6OiI1m+0Umfoz8eGCb2SepTz6SmedXR0jSsHXzcKjP6YyPZYCvTpzGzMZngNf3oUf9cR7w0eoISarQzdA5deAVapLNgWMjInr5myPiPQz3s3k0tQXAXpm5oDpEkipMO3Qy81I6bzfW+HgjcMRM/6aI2BX4eP9zNAufycyLqiMkqUq3n2viJ6iOn0Mi4qBu/+KI2A74OtDTSZAG4irgg9URklSp26Hjczrj6ciImPZZm4h4LXAysOzgkzQDb+/nxwVIUhs5dDSVOcBxEfHSyf6CiWdyvgesPLQqdeM7mfnD6ghJqtbV0MnMa4DLB9yiZloB+K+I+HhELDqxiYg1I+JY4BN4XdU0twFdXztK0iib8pORl/gLIz4PvH2wOWq46+i8mHMF4G/wqqqp3p6ZX6iOkKQmmMnQeTWdT7qV1FznAM/PzIXVIZLUBDMZOisDN9H53byk5llA511WF1eHSFJTdPswMhM/vfHTAbZImp0jHTmStKSuh86EUwZSIWm2/kAfX8oqSaNipkPnBwOpkDRb+2fmXdURktQ0Mxo6Ez9mfsGAWiT15tuZ+aPqCElqopme6IDXV1KT+Jk5kjQFh47Ubu/NTF+6K0mT6PrHyxf9DREBXAusPZAiSd36FfCCnOk/xJI0RmZ8ojPxL1UfSpZqLQD2deRI0tR6uboCr6+kap/KzEuqIySp6WZ8dQUQESvR+ZTkFfteJGk61wNPzcw7qkMkqel6OtGZ+LyO0/vcIqk7hzpyJKk7vV5dgddXUoXfAMdWR0hSW/R0dQUQEesA1wDR1yJJU9kqM/+7OkKS2qLnE53MvA44v48tkqZ2oiNHkmZmNldX4PWVNCx3A++pjpCktnHoSO1wRGZeXR0hSW3T8zM6i75AxDXA4/qTI2kprgU2yMw7q0MkqW1me6IDfkqyNGiHOnIkqTf9GDpeX0mDcy5wfHWEJLVVP66uVgBuBlbqS5GkByyg89LOc6tDJKmtZn2ik5n3AKf1oUXSkg535EjS7PTj6gq8vpL67SfAJ6ojJKntZn11BRARa9P5yRA/JVmaveuB52TmjdUhktR2fTnRyczr6byDR9LsLAR2ceRIUn/06+oKvL6S+uHDmfmz6ghJGhV9uboCiIjnABf05YtJ4+nnwLaZubA6RJJGRd+GDkBEXA08vm9fUBofNwEbTbwsV5LUJ/28ugI/JVnq1Z6OHEnqv34PHZ/TkWbus5npPzuSNAD9vrpans6nJK/cty8qjbYLgS0zc351iCSNor6e6Ez8y/rUfn5NaYTdCezkyJGkwen31RV4fSV164DMvLw6QpJGWV+vrgAiYk06n+zqpyRLkzsxM3eujpCkUdf3oQMQEWcDW/T9C0uj4f+AjTPz9uoQSRp1g7i6Aq+vpMncB+zsyJGk4XDoSMP1D5l5bnWEJI2LgVxdAUTEH4AnDuSLS+10KrB9DuofOknSwwzqRAf8lGRpcTcCuzlyJGm4Bjl0vL6SOhLYPTP/VB0iSeNmkEPnZ8AdA/z6UlscmZk/ro6QpHE0sKGTmfcCPxnU15da4jzgsOoISRpXgzzRAa+vNN7m0XnFw73VIZI0rgY9dH4I3D/g7yE11d9n5pXVEZI0zgY6dDLzz8CZg/weUkP9KDOPro6QpHE36BMdgO8N4XtITXIr8NbqCEnScIbOyXR+vFYaFwdm5nXVEZKkIQydzPwj8OtBfx+pIU7OzOOrIyRJHcM40QGvrzQebgL2q46QJD3IoSP1z9sy88bqCEnSg4YydDLzCuCSYXwvqciJmflv1RGSpCUN60QHPNXR6PoT8PbqCEnSwzl0pNnbJzNvqY6QJD3c0IZOZl4M+CmxGjXfyExfdSJJDTXMEx3wVEej5Rrg4OoISdLkHDpS7/bKzNuqIyRJkxv20DkXuHbI31MahC9l5k+qIyRJUxvq0MnMpPNKCKnNfg+8qzpCkjS9YZ/oAHy34HtK/ZLAWzLzjuoQSdL0KobOL+l8VL7URp/NzDOqIyRJ3Rn60MnM+4HvD/v7Sn3wO+DQ6ghJUvcqTnTA6yu1z/3A7pl5d3WIJKl7VUPndOD2ou8t9eKIzDy7OkKSNDMlQycz7wV+UPG9pR78FvhAdYQkaeaqTnTADw9UOywAdsvM+dUhkqSZqxw6PwJ83kFN99HMPL86QpLUm7Khk5l3AT+u+v5SFy4APlodIUnqXeWJDnh9pea6l85PWd1XHSJJ6l310DkF8BcSNdEHM/OS6ghJ0uyUDp2JNz+fVtkgLcU5wD9VR0iSZq/6RAfg+OoAaTF307myur86RJI0e00YOv8OzKuOkCa8LzMvr46QJPVH+dCZ+Omrf6vukOi8cPao6ghJUv+UD50J/1odoLF3J7BHZi6sDpEk9U9Ths4vgKuqIzTW3pWZ/1cdIUnqr0YMncxM4LjqDo2t04AvVUdIkvovOhujXkSsD/yuukNj53bg2Zl5dXWIJKn/GnGiA5CZVwBnV3do7Py9I0eSRldjhs4EH0rWMP0gM79eHSFJGpzGXF0BRMSjgOuB5atbNPJuAp6VmTdUh0iSBqdRJzqZeSvwg+oOjYV9HDmSNPoaNXQmHFsdoJH3jcw8uTpCkjR4jbq6AoiIZYFrgTWqWzSSrgI2zMzbq0MkSYPXuBOdzLwP+FZ1h0bSQjov7HTkSNKYaNzQmeD1lQbhyMw8ozpCkjQ8jbu6ekBE/BZ4RnWHRsYlwOaZOb86RJI0PE090QFPddQ/9wJvduRI0vhp8tA5ns4zFdJsHZ6ZF1VHSJKGr7FXVwAR8RNgu+oOtdovgRdlpqNZksZQk090wFdCaHbm0fkpK0eOJI2ppg+d7wB/qo5Qax2cmb+vjpAk1Wn00MnMe4HPV3eolb7vCzslSY1+RgcgIlYH/gisVN2i1rgReHZm3lgdIkmq1egTHYDMvAX4RnWHWmVvR44kCVpwogMQEU8BLqcFw0zljs7Mt1ZHSJKaoRVDByAiTgZeW92hRvs9sFFmzqsOkSQ1Q5tOSD5VHaBGWwjs5siRJC2uNUMnM88Ezq3uUGP988T/j0iStEhrhs4ET3W0NBcBh1dHSJKapzXP6ABExDLAlcB6xSlqjvnAZpl5aXWIJKl5WnWik5n3A0dVd6hR3ufIkSRNplUnOgARsSqdDxBcrbpF5c4AXuK7rCRJk2nViQ7AxE/VfKW6Q+Vuxxd2SpKm0bqhM+GzwILqCJU6MDOvqo6QJDVbK4dOZl4DnFTdoTLfy8x/rY6QJDVf657ReUBEbAycB0R1i4bqBuBZmXlTdYgkqflaeaIDkJkXACdWd2jo9nLkSJK61doTHYCIeAKdl32uUN2iofhKZu5bHSFJao/WnugAZObVwJHVHRqK/wUOqY6QJLVLq090ACJiFeAKYK3qFg3M/cDWmfmr6hBJUru0+kQHIDPvAN5f3aGB+qQjR5LUi9af6ABExBzgfGCj6hb13QXAFpl5X3WIJKl9Wn+iAzDx6bjvqO5Q390D7OrIkST1aiSGDkBmng6cUt2hvjo0My+rjpAktddIXF09ICI2AC4Blq1u0az9EHhVjtL/g0qShm5kTnQAMvNy4IvVHZq1q4DdHDmSpNkaqRMdgIhYHbgSeFR1i3pyL50fJT+3OkSS1H4jdaIDkJm3AB+q7lDP3unIkST1y8id6ABExLLAb4H1q1s0I9/OzDdVR0iSRsfInegATPw48sHVHZqR3wFvrY6QJI2WkRw6AJn5n8B3qjvUlbuB12fmvOoQSdJoGdmhM+Eg4LbqCE1r/8y8pDpCkjR6RnroZOb1wGHVHZrS1zPzG9URkqTRNJIPIy9u4j1YZwFbVLfoYS4GtszMu6tDJEmjaeSHDkBEbAicB8ytbtEi84BNM/OK6hBJ0uga6aurB2TmxcCnqzu0SAJvceRIkgZtLE50ACJiJTqfrbNecYrg4Mw8qjpCkjT6xuJEByAz7wL2r+4QH3HkSJKGZWxOdB4QEScBb6zuGFNfzEzHpiRpaMZx6KwN/A+wWnXLmDkJ+NvMXFgdIkkaH2NzdfWAic/WObS6Y8z8F/BmR44kadjGbuhM+BJwdnXEGPhfYC/glRPvH5MkaajG7urqARHxbOA3wHLVLSPocuCjwAmZeX91jCRpfI3riQ4T71Z6GnA04GnD7CWdT6D+W+AZmXmcI0eSVG1sT3QWFxHrAC8HtgO2BdaoLWqVc+g8aPxvmfnH6hhJkhbn0HmIiAhgIzqjZytgQ/yQwcUtpHPl9x3gO5l5VXGPJEmTcuh0ISJWA55NZwBtOPGfzwJWruwakjvoPLh9FvDfwNmZeXttkiRJ3XHo9GjirehP5sHhsyEPnv5EXdmszAOuAC6jM27+G7jEZ20kSW3l0OmziHgES57+PBNYF1gbWL4w7QHzgavo/GTU7xb74/KJzxiSJGlkOHSGZOLZn0cDj1vKH48FVpz4Y4VJ/nx5Oj8dNn8pf9y72J/fAtwA3Djxn0v8kZl/Gfj/spIkNcT/B+UL4fgm2GKcAAAAAElFTkSuQmCC;" parent="ZEkZ2hJIipyatHiksb2i-1" vertex="1">
          <mxGeometry x="540.4" y="400" width="9.6" height="10" as="geometry" />
        </mxCell>
        <mxCell id="Ci3oL-zlfUf6QbDjgH_t-18" value="" style="rounded=0;whiteSpace=wrap;html=1;" parent="ZEkZ2hJIipyatHiksb2i-1" vertex="1">
          <mxGeometry x="660" y="290" width="20" height="20" as="geometry" />
        </mxCell>
        <mxCell id="Ci3oL-zlfUf6QbDjgH_t-19" value="" style="verticalLabelPosition=bottom;verticalAlign=top;html=1;shape=mxgraph.basic.heart" parent="ZEkZ2hJIipyatHiksb2i-1" vertex="1">
          <mxGeometry x="660" y="290" width="20" height="20" as="geometry" />
        </mxCell>
        <mxCell id="Ci3oL-zlfUf6QbDjgH_t-20" value="" style="sketch=0;pointerEvents=1;shadow=0;dashed=0;html=1;strokeColor=none;fillColor=#505050;labelPosition=center;verticalLabelPosition=bottom;verticalAlign=top;outlineConnect=0;align=center;shape=mxgraph.office.concepts.home;" parent="ZEkZ2hJIipyatHiksb2i-1" vertex="1">
          <mxGeometry x="599.5" y="310" width="51" height="50" as="geometry" />
        </mxCell>
        <mxCell id="Ci3oL-zlfUf6QbDjgH_t-21" value="" style="triangle;whiteSpace=wrap;html=1;" parent="ZEkZ2hJIipyatHiksb2i-1" vertex="1">
          <mxGeometry x="670" y="340" width="10" height="10" as="geometry" />
        </mxCell>
        <mxCell id="Ci3oL-zlfUf6QbDjgH_t-22" value="" style="triangle;whiteSpace=wrap;html=1;rotation=-180;" parent="ZEkZ2hJIipyatHiksb2i-1" vertex="1">
          <mxGeometry x="570" y="340" width="10" height="10" as="geometry" />
        </mxCell>
        <mxCell id="Ci3oL-zlfUf6QbDjgH_t-23" value="" style="ellipse;whiteSpace=wrap;html=1;" parent="ZEkZ2hJIipyatHiksb2i-1" vertex="1">
          <mxGeometry x="620" y="370" width="10" height="10" as="geometry" />
        </mxCell>
        <mxCell id="Ci3oL-zlfUf6QbDjgH_t-24" value="" style="ellipse;whiteSpace=wrap;html=1;" parent="ZEkZ2hJIipyatHiksb2i-1" vertex="1">
          <mxGeometry x="640" y="370" width="10" height="10" as="geometry" />
        </mxCell>
        <mxCell id="Ci3oL-zlfUf6QbDjgH_t-25" value="" style="ellipse;whiteSpace=wrap;html=1;" parent="ZEkZ2hJIipyatHiksb2i-1" vertex="1">
          <mxGeometry x="603" y="370" width="10" height="10" as="geometry" />
        </mxCell>
        <mxCell id="Ci3oL-zlfUf6QbDjgH_t-26" value="" style="rounded=0;whiteSpace=wrap;html=1;fillColor=default;strokeColor=#d79b00;" parent="ZEkZ2hJIipyatHiksb2i-1" vertex="1">
          <mxGeometry x="570" y="390" width="110" height="80" as="geometry" />
        </mxCell>
        <mxCell id="Ci3oL-zlfUf6QbDjgH_t-27" value="&lt;font style=&quot;font-size: 10px;&quot;&gt;City, Province, Country&lt;/font&gt;" style="rounded=0;whiteSpace=wrap;html=1;" parent="ZEkZ2hJIipyatHiksb2i-1" vertex="1">
          <mxGeometry x="570" y="396" width="110" height="20" as="geometry" />
        </mxCell>
        <mxCell id="Ci3oL-zlfUf6QbDjgH_t-28" value="&lt;font style=&quot;font-size: 10px;&quot;&gt;Location&lt;/font&gt;" style="rounded=0;whiteSpace=wrap;html=1;" parent="ZEkZ2hJIipyatHiksb2i-1" vertex="1">
          <mxGeometry x="570" y="416" width="110" height="10" as="geometry" />
        </mxCell>
        <mxCell id="Ci3oL-zlfUf6QbDjgH_t-29" value="Description" style="rounded=0;whiteSpace=wrap;html=1;" parent="ZEkZ2hJIipyatHiksb2i-1" vertex="1">
          <mxGeometry x="570" y="446" width="110" height="24" as="geometry" />
        </mxCell>
        <mxCell id="Ci3oL-zlfUf6QbDjgH_t-30" value="&lt;font style=&quot;font-size: 8px;&quot;&gt;NÂº Rooms -Square metres&lt;/font&gt;" style="rounded=0;whiteSpace=wrap;html=1;" parent="ZEkZ2hJIipyatHiksb2i-1" vertex="1">
          <mxGeometry x="570" y="426" width="110" height="20" as="geometry" />
        </mxCell>
        <mxCell id="Ci3oL-zlfUf6QbDjgH_t-31" value="&lt;font style=&quot;font-size: 8px;&quot;&gt;Rent&lt;/font&gt;" style="rounded=0;whiteSpace=wrap;html=1;" parent="ZEkZ2hJIipyatHiksb2i-1" vertex="1">
          <mxGeometry x="610" y="382" width="40" height="10" as="geometry" />
        </mxCell>
        <mxCell id="Ci3oL-zlfUf6QbDjgH_t-32" value="&lt;font style=&quot;font-size: 8px;&quot;&gt;Status&lt;/font&gt;" style="rounded=0;whiteSpace=wrap;html=1;" parent="ZEkZ2hJIipyatHiksb2i-1" vertex="1">
          <mxGeometry x="440" y="387" width="40" height="10" as="geometry" />
        </mxCell>
        <mxCell id="Ci3oL-zlfUf6QbDjgH_t-33" value="&lt;font style=&quot;font-size: 8px;&quot;&gt;Status&lt;/font&gt;" style="rounded=0;whiteSpace=wrap;html=1;" parent="ZEkZ2hJIipyatHiksb2i-1" vertex="1">
          <mxGeometry x="571" y="382" width="39" height="10" as="geometry" />
        </mxCell>
        <mxCell id="Ci3oL-zlfUf6QbDjgH_t-34" value="&lt;font style=&quot;font-size: 8px;&quot;&gt;Rent&lt;/font&gt;" style="rounded=0;whiteSpace=wrap;html=1;" parent="ZEkZ2hJIipyatHiksb2i-1" vertex="1">
          <mxGeometry x="480" y="387" width="40" height="10" as="geometry" />
        </mxCell>
        <mxCell id="Ci3oL-zlfUf6QbDjgH_t-35" value="" style="rounded=0;whiteSpace=wrap;html=1;" parent="ZEkZ2hJIipyatHiksb2i-1" vertex="1">
          <mxGeometry x="278.5" y="287" width="110" height="180" as="geometry" />
        </mxCell>
        <mxCell id="Ci3oL-zlfUf6QbDjgH_t-36" value="" style="rounded=0;whiteSpace=wrap;html=1;" parent="ZEkZ2hJIipyatHiksb2i-1" vertex="1">
          <mxGeometry x="368.5" y="287" width="20" height="20" as="geometry" />
        </mxCell>
        <mxCell id="Ci3oL-zlfUf6QbDjgH_t-37" value="" style="verticalLabelPosition=bottom;verticalAlign=top;html=1;shape=mxgraph.basic.heart;" parent="ZEkZ2hJIipyatHiksb2i-1" vertex="1">
          <mxGeometry x="368.5" y="287" width="20" height="20" as="geometry" />
        </mxCell>
        <mxCell id="Ci3oL-zlfUf6QbDjgH_t-38" value="" style="sketch=0;pointerEvents=1;shadow=0;dashed=0;html=1;strokeColor=none;fillColor=#505050;labelPosition=center;verticalLabelPosition=bottom;verticalAlign=top;outlineConnect=0;align=center;shape=mxgraph.office.concepts.home;" parent="ZEkZ2hJIipyatHiksb2i-1" vertex="1">
          <mxGeometry x="308" y="307" width="51" height="50" as="geometry" />
        </mxCell>
        <mxCell id="Ci3oL-zlfUf6QbDjgH_t-39" value="" style="rounded=0;whiteSpace=wrap;html=1;" parent="ZEkZ2hJIipyatHiksb2i-1" vertex="1">
          <mxGeometry x="278.5" y="391" width="110" height="80" as="geometry" />
        </mxCell>
        <mxCell id="Ci3oL-zlfUf6QbDjgH_t-40" value="&lt;font style=&quot;font-size: 10px;&quot;&gt;City, Province, Country&lt;/font&gt;" style="rounded=0;whiteSpace=wrap;html=1;" parent="ZEkZ2hJIipyatHiksb2i-1" vertex="1">
          <mxGeometry x="278.5" y="397" width="110" height="20" as="geometry" />
        </mxCell>
        <mxCell id="Ci3oL-zlfUf6QbDjgH_t-41" value="&lt;font style=&quot;font-size: 10px;&quot;&gt;Location&lt;/font&gt;" style="rounded=0;whiteSpace=wrap;html=1;" parent="ZEkZ2hJIipyatHiksb2i-1" vertex="1">
          <mxGeometry x="278.5" y="417" width="110" height="10" as="geometry" />
        </mxCell>
        <mxCell id="Ci3oL-zlfUf6QbDjgH_t-42" value="Description" style="rounded=0;whiteSpace=wrap;html=1;" parent="ZEkZ2hJIipyatHiksb2i-1" vertex="1">
          <mxGeometry x="278.5" y="447" width="110" height="24" as="geometry" />
        </mxCell>
        <mxCell id="Ci3oL-zlfUf6QbDjgH_t-43" value="&lt;font style=&quot;font-size: 8px;&quot;&gt;NÂº Rooms -Square metres&lt;/font&gt;" style="rounded=0;whiteSpace=wrap;html=1;" parent="ZEkZ2hJIipyatHiksb2i-1" vertex="1">
          <mxGeometry x="278.5" y="427" width="110" height="20" as="geometry" />
        </mxCell>
        <mxCell id="Ci3oL-zlfUf6QbDjgH_t-44" value="&lt;font style=&quot;font-size: 8px;&quot;&gt;Shared&lt;/font&gt;" style="rounded=0;whiteSpace=wrap;html=1;" parent="ZEkZ2hJIipyatHiksb2i-1" vertex="1">
          <mxGeometry x="358.5" y="384" width="30.5" height="10" as="geometry" />
        </mxCell>
        <mxCell id="Ci3oL-zlfUf6QbDjgH_t-45" value="" style="triangle;whiteSpace=wrap;html=1;" parent="ZEkZ2hJIipyatHiksb2i-1" vertex="1">
          <mxGeometry x="378.5" y="337" width="10" height="10" as="geometry" />
        </mxCell>
        <mxCell id="Ci3oL-zlfUf6QbDjgH_t-46" value="" style="triangle;whiteSpace=wrap;html=1;rotation=-180;" parent="ZEkZ2hJIipyatHiksb2i-1" vertex="1">
          <mxGeometry x="278.5" y="337" width="10" height="10" as="geometry" />
        </mxCell>
        <mxCell id="Ci3oL-zlfUf6QbDjgH_t-47" value="" style="ellipse;whiteSpace=wrap;html=1;" parent="ZEkZ2hJIipyatHiksb2i-1" vertex="1">
          <mxGeometry x="298.5" y="367" width="10" height="10" as="geometry" />
        </mxCell>
        <mxCell id="Ci3oL-zlfUf6QbDjgH_t-48" value="" style="ellipse;whiteSpace=wrap;html=1;" parent="ZEkZ2hJIipyatHiksb2i-1" vertex="1">
          <mxGeometry x="318.5" y="367" width="10" height="10" as="geometry" />
        </mxCell>
        <mxCell id="Ci3oL-zlfUf6QbDjgH_t-49" value="" style="ellipse;whiteSpace=wrap;html=1;" parent="ZEkZ2hJIipyatHiksb2i-1" vertex="1">
          <mxGeometry x="338.5" y="367" width="10" height="10" as="geometry" />
        </mxCell>
        <mxCell id="Ci3oL-zlfUf6QbDjgH_t-50" value="" style="ellipse;whiteSpace=wrap;html=1;" parent="ZEkZ2hJIipyatHiksb2i-1" vertex="1">
          <mxGeometry x="359" y="367" width="10" height="10" as="geometry" />
        </mxCell>
        <mxCell id="Ci3oL-zlfUf6QbDjgH_t-51" value="" style="shape=image;verticalLabelPosition=bottom;labelBackgroundColor=default;verticalAlign=top;aspect=fixed;imageAspect=0;image=data:image/png,iVBORw0KGgoAAAANSUhEUgAAAjoAAAJSCAYAAADK72/3AAAABHNCSVQICAgIfAhkiAAAAAlwSFlzAAA2XwAANl8BwcvkVwAAABl0RVh0U29mdHdhcmUAd3d3Lmlua3NjYXBlLm9yZ5vuPBoAAAAddEVYdFRpdGxlAG15IHJlZCBjaGVjayBtYXJrIC0gcG5npftX4AAAIABJREFUeJzt3XmUpGV5v/HrHoYdRFFkERWjiCvIJqiACyIGd+ICAQFBFjEswRU0aNxNEEWNO2IAETRKDBqNgIoSBJQdyQ8hUZBFkEUYtoFh7t8f1QwzMN1dXV1V9/tWXZ9zOJIEuq/kBOY7z/N2vZGZSJIkzVZELAOsDjxmmj9WAeYCy07853R/3AL8YZI/rsvMhZM2OXQkSdJUIiKAdYH1gacAfwWswcMHzKOAGHLefcD5wDeBkzLzxsX/hw4dSZL0wJh5HA+OmfUX+/MnAyvW1XXtfuCLwHsy8y5w6EiSNFYiYmljZn3aM2a6cQWwQ2Ze6dCRJGlERcSywCbAVhN/vIDOldM4+A3wfIeOJEkjIiJWBLbmwWGzBbBSaVStg+ZWF0iSpN5FxOrAK4DXAtsDK9cWNcp2nuhIktQyEfEEOsPmtXROcDy4WLo/+38YSZJaICIeAewM7AVsXpzTFuHQkSSpwSLi+cBbgTfitdRM3ebQkSSpYSLiMcBudAbO04tz2uw6h44kSQ0REX8FvBvYA1i+tmYknObDyJIkFYuIZwKHAjsByxTnjJItHDqSJBWJiOcChwGvZvjviBp1NwDreHUlSdKQRcSWwEeAbatbRtjnMnOhJzqSJA1JRKwFfBJ4M57gDNI84AmZ+RdPdCRJGrCJd04dBBwOrFqcMw6+nJl/Ad9eLknSQEXEy4HPABtUt4yJe4EnZeZ14EdGS5I0EBHxZODTwKuqW8bMsQ+MHPBER5KkvoqIlen8JNU78LNwhm0h8LTMvOKB/4YnOpIk9UlE7Az8M/C46pYx9b3FRw54oiNJ0qxFxEbA5+i8SVw1EtgsM89f/L85pyhGkqTWi4hHR8QXgPNw5FQ7+qEjBzzRkSRpxiIigP3ofOjf6sU5gpuBDTLz5of+D3xGR5KkGYiIJwHfALYpTtGD3ru0kQOe6EiS1LWI2I/Ow8arVLdokbOB5+ckg8ahI0nSNCJiXeDrwHbVLVrC/cDmmXnBZH+BDyNLkjSFiNgDuBRHThN9YaqRA57oSJK0VBMv4PwKfrJxU91A5wHk26b6izzRkSTpISLiTXROcRw5zfXO6UYOeKIjSdIiEfEY4AvAG6pbNKUzMvNF3fyFDh1JkoCIeAVwNLBmdYumdB/wnMy8rJu/2KsrSdJYi4hlI+II4BQcOW3wj92OHPBER5I0xiJiPeBEYIvaEnXpV8DWmXl/t3+DQ0eSNJYi4nV0PhvnkdUt6sqddK6srpzJ3+TVlSRprETE8hHxOeB7OHLa5JCZjhzwREeSNEYi4inAScAm1S2akR9m5it7+RsdOpKksRARO9H5AMBVq1s0IzcBz87MP/XyN3t1JUkaaRM/VfVF4Fs4ctpo315HDsDcfpZIktQkEbEa8F1g2+oW9eRfM/N7s/kCXl1JkkZSRDwJ+CHw9OoW9eQqYMPMvH02X8SrK0nSyImILYGzceS01UJg99mOHHDoSJJGTES8AfgZ8NjqFvXsyMw8ox9fyKsrSdLIiIj3Ah8DorpFPbsU2Cwz5/fji3miI0kaCRFxGPBxHDltdi+wa79GDjh0JEkjICL2Aj5a3aFZOzwzL+rnF/TqSpLUahHxSDo/ofOI6hbNypnACzNzYT+/qCc6kqS22xtHTtvNA3br98gBh44kqcUiYg6wf3WHZu3gzPz9IL6wQ0eS1GavANarjtCsfD8zvz6oL+4zOpKkVoqIZYBfAZtXt6hnNwLPysw/D+obeKIjSWqrd+DIabu9BzlywBMdSVILRcQGwIXACtUt6tnXMnPvQX8Th44kqVUmHkA+E3hedYt6dgmwZWbeNehv5NWVJKltDsKR02bzgNcPY+SAJzqSpBaJiKfSubJasbpFPXtjZn5nWN/MEx1JUitExMrAd3HktNlRwxw54ImOJKklIuIk4I3VHerZ2cA2mXnfML+pJzqSpMaLiHfjyGmzm+hcWQ115IAnOpKkhouIlwI/BpapblFPFgJ/nZk/qfjmnuhIkhorItYDTsSR02Yfrho54ImOJKmhImJF4CzgOdUt6tlP6Jzm9P2t5N3yREeS1FRfwZHTZpfReS6nbOSAQ0eS1EARcRCwa3WHenYj8IrMvK06xKsrSVKjRMQLgdOAudUt6sk9wIsz8+zqEPBER5LUIBGxLvBtHDltlcBuTRk54NCRJDVERCwPfA94bHWLenbYsD/5eDoOHUlSU3wB2Lw6Qj37emZ+ojrioXxGR5JULiLeRmfoqJ1+Bmxf8cnH03HoSJJKRcTzgZ8DyxanqDdXAFtm5i3VIUvj0JEklYmItYHzgLWrW9STW+mMnN9Vh0zGZ3QkSSUmHj4+GUdOW90HvL7JIwccOpKkOl8BtqiOUM/enpk/rY6YjkNHkjR0EXEIsFt1h3p2ZGZ+tTqiGz6jI0kaqojYHvghvpG8rX4AvKb6HVbdcuhIkoYmIp4KnAM8srpFPbkYeEFm3lEd0i2HjiRpKCJiNeBs4GnVLerJDcBzM/Pq6pCZ8BkdSdLARcQc4AQcOW11D53rqlaNHHDoSJKG4+PADtUR6tlbMvOc6oheOHQkSQMVEbsA767uUM8+mJknVkf0ymd0JEkDExGbA78AVqhuUU++lZl/Wx0xGw4dSdJATLze4dfA46pb1JOzgRdn5j3VIbPh1ZUkqe8We72DI6edrgZe2/aRAw4dSdJgfBlf79BW84BXZuYN1SH94NCRJPXVxOsddq/uUE8WAjtn5iXVIf3iMzqSpL7x9Q6td0hmfro6op8cOpKkvoiI9YFz8fUObfXVzNynOqLfHDqSpFnz9Q6tdzbwwsy8tzqk33xGR5I0K77eofVuBF4/iiMHHDqSpNnz9Q7ttQB4Y2ZeWx0yKA4dSVLPfL1D6707M8+ojhgkn9GRJPXE1zu03omZuXN1xKA5dCRJM+brHVrvUmDLzLyzOmTQvLqSJM3IxOsdvocjp61uA143DiMHHDqSpJn7MrBldYR6ksCbM/PK6pBhcehIkroWEW/D1zu02Ucy85TqiGHyGR1JUlci4rnAL4HlqlvUkx/ReVnnwuqQYXLoSJKmFRGPBs4HnlDdop78H7BZZt5aHTJsXl1Jkqa02CcfO3La6W5gx3EcOeDQkSRN74PAy6oj1LN9MvOi6ogqXl1JkiYVETsAPwCiukU9+VxmHlgdUcmhI0laqohYDzgPWL22RD06E3hJZt5XHVLJoSNJepiJDwX8b2DT6hb15Hpgk8z8U3VINZ/RkSQtzedw5LTVfcAbHDkdDh1J0hIi4i3A3tUd6tkhmfnf1RFN4dWVJGmRiHgO8Ct8I3lbHZeZu1VHNIlDR5IEQEQ8ks7Dx39V3aKeXAg8PzPvrg5pEq+uJElERADH4shpq1vpfCigI+chHDqSJIBDgVdVR6gnC4G/zczfV4c0kUNHksZcRGwLfKi6Qz37YGb+uDqiqXxGR5LGWESsS+dlnWtUt6gnpwCvSX8xn5RDR5LGVEQsC/wC2LK6RT25Atg8M2+rDmkyr64kaXwdiSOnre6k8/CxI2caDh1JGkMRsTPwd9Ud6tlemXlpdUQbeHUlSWMmIp4JnAOsXN2inhyZme+ojmgLh44kjZGIWBX4NbBBdYt68nNgu8xcUB3SFl5dSdJ4+TqOnLa6FniTI2dmHDqSNCYi4hDg9dUd6sm9wN9k5o3VIW3j1ZUkjYGI2Br4KTC3ukU92S8zv1wd0UYOHUkacRGxFp0PBVy7ukU9OSYz96yOaCuHjiSNsIiYC5wGvLC6RT05D9gqM++pDmkrn9GRpNH2cRw5bXUznedyHDmz4ImOJI2oiNgR+G51h3qyEHh5Zp5aHdJ2nuhI0giKiKcCx1R3qGfvc+T0hyc6kjRiImIlOp98/KzqFvXk5MzcsTpiVHiiI0mj5ys4ctrqcmD36ohR4tCRpBESEfsDu1R3qCd3AK/LzHnVIaPEqytJGhERsQXwC2C56hb15PWZ6cPjfeaJjiSNgIh4NPAdHDlt9U+OnMHwREeSWi4iAvgBsEN1i3pyOrB9Zt5fHTKKPNGRpPZ7F46ctvojsJMjZ3A80ZGkFouIFwA/x5d1ttF8YOvM/HV1yCjzREeSWmriuZwTceS01d85cgbPoSNJLTTxXM5xwLrVLerJVzPza9UR48ChI0nt9B7gr6sj1JNzgQOqI8aFz+hIUstExFbAz/DKqo3+DGyamX+sDhkXnuhIUotExGPwuZy2up/OT1g5cobIoSNJLbHYczmPq25RT96bmT+tjhg3Dh1Jao/3Ai+vjlBPvpOZR1RHjCOf0ZGkFoiIrek8l7NMdYtm7DJgi8y8ozpkHDl0JKnhImIN4AK8smqj24HnZubl1SHjyqsrSWown8tptQR2d+TUcuhIUrMdCmxfHaGefDwz/706Ytx5dSVJDRUR2wA/xedy2ugHwGsyc2F1yLhz6EhSA008l3MhsE51i2bsQjov6/Th4wbw6kqSGiYi5gDH48hpo+uAVzpymsOhI0nNcxjwsuoIzdidwKsy89rqED3IqytJapCIeCFwOj6X0zYLgddl5n9Uh2hJnuhIUkNExGOBb+HIaaN3OXKayaEjSQ0w8VzON4G1q1s0Y1/KzCOrI7R0Dh1Jaob3AS+tjtCM/QQ4oDpCk/MZHUkqFhEvBk7FK6u2+S3w/My8vTpEk3PoSFKhiFiTzueurFXdohm5gc6LOq+qDtHUvLqSpCKLPZfjyGmXu+l86rEjpwUcOpJU5x+AbasjNCMPvKjznOoQdcerK0kqEBEvofNcjr/hbJfDMvPj1RHqnkNHkobM53Ja65jM3LM6QjPj0JGkIZp4LudU4CXVLZqRnwHbZ+Z91SGaGY9MJWm4DseR0za/A/7GkdNOnuhI0pBExLZ0PmDO32S2xy3Alpl5RXWIeuPQkaQhiIi16DyXs2Z1i7p2H7BdZp5RHaLe+bsKSRqwiedyTsCR0zb7OnLaz6EjSYP3AeDF1RGakU9m5jHVEZo9r64kaYAi4qXAf+FvLNvkZDoPH/sL5Ahw6EjSgETE2nSey3lsdYu6dh6wTWbeVR2i/vB3GJI0ABGxDJ3nchw57XEt8GpHzmhx6EjSYHwQeFFxg7p3J/CqzLyuOkT95dWVJPVZRGwH/Bh/M9kmO2bmydUR6j//IZSkPpp4Lud4/Pdrm/yLI2d0eaIjSX3ie6xa6bfAZpl5T3WIBsPfcUhS/xyGI6dN7gF2duSMNk90JKkPImIr4OfAMsUp6t6Bmfm56ggNlkNHkmYpIlan83k5j69uUdf+MzNfUR2hwfPqSpJm7+s4ctrkBuAt1REaDoeOJM1CRBwAvKa6Q11LYI/MvLE6RMPh1ZUk9SgiNgZ+BSxf3aKuHZWZB1dHaHgcOpLUg4hYBTgfWL+6RV27GHhuZs6vDtHweHUlSb35Io6cNrmbzo+SO3LGjENHkmYoInYHdq3u0Iy8MzMvq47Q8Hl1JUkzEBEbAOcBK1e3qGunZOarqyNUw6EjSV2KiOWBc4CNqlvUteuBDTPzpuoQ1fDqSpK6dySOnDZJYHdHznhz6EhSFyLidcD+1R2akSMz89TqCNXy6kqSphERTwQuAB5V3aKuXUTnR8nvrQ5RLU90JGkKETEX+BaOnDaZD+zqyBE4dCRpOh8CnlcdoRk5LDMvrY5QM3h1JUmTiIjtgP8CorpFXfsp8NL0FzdNcOhI0lJExJp0nvNYs7pFXfsLnR8l/2N1iJrDqytJeoiICOA4HDlt83ZHjh7KoSNJD/ceYLvqCM3IiZl5QnWEmserK0laTEQ8D/gFMLe6RV27hs6V1a3VIWoeT3QkaUJEPJLOj5I7ctojgT0cOZqMQ0eSHnQ08MTqCM3IUZl5enWEmsurK0kCImJ/4F+qOzQjvwU2y8x7qkPUXA4dSWMvIjYCzgZWqG5R1+4FtsjMC6tD1GxeXUkaaxGxMnAijpy2OdyRo244dCSNu88DT6uO0Iz8Evjn6gi1g1dXksZWROxK54MB1R63Axtl5h+qQ9QODh1JYyki1gfOB1apblHXEvibzDy5OkTt4dWVpLETEcsBJ+HIaZtPOnI0Uw4dSePon4GNqyM0I6cD76+OUPt4dSVprETEq4HvV3doRv4IbJKZN1WHqH0cOpLGRkQ8HrgQWL26RV2bD2yTmedWh6idvLqSNBYiYhngBBw5bXOgI0ez4dCRNC4+CGxVHaEZOSYzv1IdoXbz6krSyIuIlwCn4m/u2uQ8YCvfY6XZcuhIGmkRsQZwEbB2dYu6dh3w3My8tjpE7efvbiSNrIgI4FgcOW1yN/AaR476xaEjaZS9E3h5dYS6lsDumfmb6hCNDq+uJI2kiHgucCawbHWLuvaBzPxQdYRGi0NH0siJiNWAC4AnVbeoaydm5s7VERo9Xl1JGkVfxpHTJucCb6mO0Ghy6EgaKRHxFuBN1R3q2jXAa/0xcg2KV1eSRkZEPBU4H1i5ukVduYvOZ+VcUB2i0eWJjqSREBHLAd/CkdMWCbzZkaNBc+hIGhUfAzapjlDX3p+Z36uO0Ojz6kpS60XEy4AfA1Hdoq58MzN3rY7QeHDoSGq1iVc8XAysVd2irvwKeHFmzq8O0Xjw6kpS230DR05bXA28zpGjYXLoSGqtiDgI2KG6Q125G3h1Zt5QHaLx4tWVpFaKiI2Ac4Dlq1vUlT0z85jqCI0fT3QktU5ErETnR8kdOe1wjCNHVRw6ktro08DTqyPUlUuAt1dHaHx5dSWpVSJiR+C71R3qyjxgs8z8XXWIxpcnOpJaIyIeD3ytukNd29uRo2oOHUmtEBFzgOOBR1W3qCv/kpknVUdIDh1JbfE+YJvqCHXlN8Ah1RES+IyOpBaIiOcBvwDmVrdoWrcCm2TmH6pDJPBER1LDRcRqwAk4ctoggT0cOWoSh46kpvsSsF51hLpyRGb+R3WEtDivriQ1VkTsAfhBc+1wJp2XdS6oDpEW59CR1EgRsT5wPrBKdYum9Wdg48y8tjpEeiivriQ1TkQsS+cVD46c5lsI7OLIUVM5dCQ10UeBTasj1JUPZ+ap1RHSZLy6ktQoEbEd8F9AVLdoWqcB22fmwuoQaTIOHUmNERFrABcDa1W3aFrX0Xku58bqEGkqXl1JapJjcOS0wQJgJ0eO2sChI6kRIuJA4BXVHerK+zLzl9URUje8upJULiI2BM4Flq9u0bROAV6T/uKhlnDoSCoVESvSeQnkM6pbNK0/0HmP1a3VIVK3vLqSVO3TOHLa4F7gjY4ctY1DR1KZiHgdsG91h7ryjsz8dXWENFNeXUkqERHrAhcBq1e3aFrfzsw3VUdIvXDoSBq6iJgD/BR4YXWLpvU7YLPMnFcdIvXCqytJFQ7FkdMGdwNvcOSozTzRkTRUEbEl8EtgbnWLprVXZn69OkKaDYeOpKGJiEcAFwJPqm7RtL6RmW+pjpBmy6srScP0JRw5bXApsH91hNQPDh1JQxERuwM7V3doWnfR+bycu6tDpH5w6EgauIh4CvD56g515aDM/J/qCKlffEZH0kBFxLLAWcBm1S2alp+Xo5HjiY6kQfsIjpw2+AOwT3WE1G+e6EgamIh4KfATIKpbNKUFwNaZeXZ1iNRvnuhIGoiIeDTwrzhy2uAfHDkaVZ7oSBqIiPgusGN1h6Z1GvCy9BcDjSiHjqS+i4i3AH6ibvP9GdgwM/9UHSINikNHUl9FxJPpfPrxKtUtmlICr8jMH1WHSIPkMzqS+iYilgGOw5HTBp925GgcOHQk9dP7gOdVR2ha59F5g7w08ry6ktQXEbEFcCa+lbzp5gGbZOaV1SHSMHiiI2nWImJl4HgcOW2wvyNH48ShI6kfPgM8pTpC0zouM4+vjpCGyasrSbMSEa8FTq7u0LSuoHNldUd1iDRMDh1JPYuItYBLgMdUt2hK9wLPy8zzq0OkYfPqStJsHIMjpw3e68jRuHLoSOpJRBwAvLy6Q9P6TzrPUEljyasrSTMWEc+g81ksK1S3aErXAxtl5p+rQ6QqnuhImpGIWA74Jo6cplsIvNmRo3Hn0JE0Ux8BnlMdoWl9MjNPr46Qqnl1JalrEfEi4HT8TVLT/QrYJjMXVIdI1Rw6kroSEY8ELgYeX92iKd0GPCcz/1AdIjWBvyuT1K0v4shpg70dOdKDHDqSphURuwA7VXdoWl/NzO9UR0hN4tWVpClFxBOBi4DVqls0pcuAzTPzruoQqUk80ZE0qYiYAxyLI6fp7gF2cuRID+fQkTSVdwPbVEdoWu/IzEuqI6Qm8upK0lJFxCbA2cCy1S2a0r9n5uuqI6SmcuhIepiIWBE4H3hadYum9Ec6P0p+S3WI1FReXUlamiNw5DTd/cAujhxpag4dSUuIiB2A/as7NK0PZeYvqyOkpvPqStIiEbEGcAmwZnWLpvQL4CWZeX91iNR0nuhIWtzXcOQ03S10rqwcOVIXHDqSAIiIfYBXV3doWntm5jXVEVJbeHUliYhYH7gAWLm6RVP6fGYeUB0htYlDRxpzETEXOAvYvLpFU7oI2CIz51eHSG3i1ZWkD+DIabq76LziwZEjzZAnOtIYi4gXAGcAy1S3aEpvzcyjqyOkNnLoSGMqIlalcx3ypOoWTemkzNypOkJqK6+upPH1ORw5Tfd7YJ/qCKnNHDrSGIqI1wO7V3doSguAnTPz9uoQqc0cOtKYiYjHAV+u7tC03p+Z51RHSG3nMzrSmImIHwPbV3doSqcBL0v/BS3Nmic60hiJiH1x5DTdjcCbHTlSf3iiI42JiHgScDGwSnWLJpXADpn54+oQaVR4oiONgYgI4BgcOU13pCNH6i+HjjQeDgJeWB2hKf0GOLQ6Qho1Xl1JIy4iNqDzws4Vq1s0qXnAJpl5ZXWINGo80ZFGWEQsA3wDR07Tvc2RIw2GQ0cabe8CtqyO0JSOzcxvVkdIo8qrK2lERcSz6Tz3sVx1iyb1O2DTzLyjOkQaVZ7oSCMoIpYF/hVHTpPdS+cVD44caYAcOtJoej+wcXWEpvSezDy/OkIadV5dSSMmIjYFzgbmVrdoUj/MzFdWR0jjwKEjjZCIWB44H3hGdYsmdT2wYWbeVB0ijQOvrqTR8mEcOU22ENjVkSMNj0NHGhER8XzgHdUdmtInMvOn1RHSOPHqShoBEbEScBHwlOoWTepXwDaZuaA6RBonnuhIo+GTOHKa7C90fpTckSMNmUNHarmIeAnw9uoOTWnvzLyqOkIaR15dSS0WEasClwBPrG7RpL6SmftWR0jjyhMdqd2OxJHTZJcBB1dHSOPMEx2ppSLir4H/rO7QpO4BNs/MS6tDpHHmiY7UQhHxKOBr1R2a0iGOHKmeQ0dqp88B61RHaFInZ+YXqyMkeXUltU5E7Ah8t7pDk/ojsFFm3lodIsmhI7VKRKwB/BZYo7pFS3U/8KLMPLM6RFKHV1dSu3wJR06T/aMjR2oWT3SkloiIXYDjqzs0qTOAl2TmwuoQSQ9y6EgtEBHrAJcCj6pu0VLdTOe5nGurQyQtyasrqR2+iiOnyfZ05EjN5NCRGi4i9gJ2qO7QpD6Xmf9RHSFp6by6khosItYG/gdYrbpFS3URsEVmzq8OkbR0nuhIzfZpHDlNdSewkyNHajaHjtRQEfEy4E3VHZrUgZn5/6ojJE3NqyupgSJiBTo/ZfXk6hYt1YmZuXN1hKTpeaIjNdNhOHKa6v+AfasjJHXHEx2pYSJiA+BiYLnqFj3MfcBWmXludYik7niiIzXPF3HkNNX7HTlSu3iiIzVIROwKHFfdoaU6Fdg+/Zem1CoOHakhIuJRwP8DHlvdooe5EdgwM2+oDpE0M15dSc3xcRw5TbWHI0dqJ090pAaIiC2Bs4CobtHDfD4zD6iOkNQbh45ULCLmAr8BNqpu0cNcBmyWmXdXh0jqjVdXUr2DcOQ00b3ALo4cqd080ZEKRcTj6ZwarFLdood5V2YeUR0haXY80ZFqfRZHThP9DPhUdYSk2fNERyoSEa8C/qO6Qw9zK50fJb+mOkTS7HmiIxWIiJWAz1V3aKn2c+RIo8OhI9X4APDE6gg9zLGZ+e3qCEn949WVNGQR8SzgAmBudYuW8Htgo8ycVx0iqX880ZGG7/M4cprmfmBXR440ehw60hBFxBuBF1Z36GE+lplnVUdI6j+vrqQhiYgV6by08wnVLVrCOcBWmbmgOkRS/3miIw3Pe3DkNM0ddK6sHDnSiPJERxqCiHgi8D/AitUtWsJbM/Po6ghJg+OJjjQcR+DIaZqTHTnS6PNERxqwiHgx8NPqDi3hOjqffnxzdYikwfJERxqgiFgGOKq6Q0tIYA9HjjQeHDrSYO0HPLs6Qks4KjNPrY6QNBxeXUkDEhGPBn4HrF7dokUuATbPzPnVIZKGwxMdaXA+jCOnSeYDuzhypPHi0JEGICKeC+xT3aElvDczL6mOkDRcXl1JfRYRq9B5aedTqlu0yKnA9um/8KSx44mO1H+fwZHTJDfT+SkrR440hnyD8kNExErACnRG4DIT//nAny8Abs3Mu+sK1WQRsSOwV3WHlrB3Zl5XHSGpxthdXUVEAOsAfwU8eeKPxf/8MV18mfnAX4BbgT8BvwLOAM7KzHkDyFYLRMQ6wMXAo6tbtMjRmfnW6ghJdUZ+6ETEqsDLgVcBm9IZNSsM6NvdD/wa+ERmfn9A30MNNDGgfwK8tLpFi1wJbJyZd1SHSKozkkMnIp5AZ9i8GngRsFxBxlnAezLzzILvrSGLiEOAT1V3aJEFwFaZeU51iKRaIzF0Jn43vRkPjpuNaouW8AXg73wQcnRFxIbAucDy1S1a5PDM/HB1hKR6rR46EbERnY/Yfw2wdnHOVL4B7JWZC6tD1F8RsQLwG+CZ1S1a5Cxgm8y8vzpEUr3W/dRVRMyhc2pzEJ1rqTbYA1guInbzX74j5+M4cppkHrCr/5xJekBrhk5ErAbsCRwAPKk4pxd/C9wF7F0dov6IiG3pDG41x99l5u/hlpj8AAAYJ0lEQVSrIyQ1R+OvriJifeBAOqciq9TW9MXrM/O71RGanYh4JJ0XRK5b3aJFvp2Zb6qOkNQsjR06EbEdcDDw10AU5/TTzcCGfoBZu0XECcDO1R1a5Bo6/1zdWh0iqVka9wqIiNg2Is6n85kkOzBaIwc6HyZ3zMRPiqmFImInHDlNksDujhxJS9OYoRMRT4+IHwCnARtX9wzYy4C3V0do5iJiXTofGaDm+FRm/rQ6QlIzlV9dRcRjgX+k85DuMqUxw3UL8FeZeVt1iLrjpx830oXAFpl5b3WIpGYqO9GJiBUi4lA6H9O+H+M1cgBWB95RHaEZORBHTpPcDeziyJE0laGf6Ez8rngX4GPA44f6zZvnDjqnOn+uDtHUIuIZwHkM7j1pmrkDMvPz1RGSmm2oJzoRsQ2dl14ehyMHOj8u/97qCE0tIpYFjseR0yQ/cuRI6sZQTnQiYiXgn/AB3KW5B1g/M6+pDtHSRcTHgEOrO7TIn4FnZ+YN1SGSmm/gJzoRsTlwPo6cyawA/EN1hJYuIl4AvKe6Q0vYy5EjqVsDO9GJiLnAYXR+EW/NqyaKLACenplXVofoQRGxKnAR7XzlyKj6cmbuVx0hqT0GcqIz8dqGM+n82LgjZ3pz6fzfSs3yGRw5TXI5cEh1hKR26fuJTkTsB3wKWKmvX3j0LQQ2ysxLq0MEEfFa4OTqDi1yH/C8zDyvOkRSu/TtRCci1oqI/wS+iCOnF3OAj1RHCCJiTeAr1R1awgccOZJ60ZcTnYh4GXACnfc4aXa2yMxzqyPGWUScAryyukOL/AJ4cWYurA6R1D6zPtGJiD2BH+LI6ZePVQeMs4jYBUdOk9wG7ObIkdSrWQ2diPggcDQ+cNxP20bEi6sjxlFErEHnAWQ1x/6ZeVV1hKT26mnoRMSyEXEM8IE+96jjo9UBY+oo4DHVEVrkhMw8oTpCUrvN+Bmdic8W+S6w3UCK9IAXZeYZ1RHjIiJeCZxS3aFFrgY2zMzbqkMktduMTnQiYh3glzhyhuHd1QHjIiIeQeenBdUMC4E3O3Ik9UPXQycingWcDWw0uBwtZoeIeHZ1xJj4JLBudYQW+WRm/qI6QtJo6OrqauJ9VacCqw28SIs7LjN3q44YZRGxDfBzIIpT1HEenQ8GvK86RNJomHboRMTjgF8Daw+lSItbADw5M6+uDhlFEbECnXdZPbW6RQDcBWySmZdXh0gaHVNeXUXEisD3ceRUmQv8fXXECPsAjpwmOcSRI6nfJj3RiYgATgLeMNQiPdSdwBMy85bqkFESERsD5+JnQDXFKZn56uoISaNnqhOdD+DIaYKVgf2rI0ZJRMzFD7pskhuAvaojJI2mpQ6diHgjcPiQWzS5AyeuEdUf7wQ2ro7QIm/JzD9XR0gaTQ8bOhGxKfAN/CmUJlkD2KM6YhRExFPxE72b5F8y80fVEZJG1xLP6ETEI4FLgceVFWky/wtskJn3V4e01cRzZ2cAW1e3CIDLgM0y8+7qEEmj66EnOh/EkdNUTwb+pjqi5fbDkdMU9wK7OHIkDdqiE52IeDpwMT6g2WTnZeZm1RFtFBHr0jlBWLW6RQC8OzP/uTpC0uhb/ETn0zhymm7TiNi2OqKlvoQjpyl+BhxRHSFpPERmPvAeq0uqY9SVUzPzZdURbRIROwMnVHcIgFvpvJX8muoQSePhgROdPSojNCPbTXzYnboQEY8BPlvdoUX2c+RIGqY5Ex+etmt1iGbk3dUBLXIU8JjqCAFwbGZ+uzpC0ngJ4AXAmdUhmpH7gfUz8/fVIU0WETsAP6zuEAC/BzbKzHnVIZLGyxzg6dURmrFlgHdURzRZRKxK5wFk1bsf2NWRI6nCHOBp1RHqyZ4Tz59o6T4BPL46QgB8LDPPqo6QNJ4cOu21InBAdUQTRcTWwNuqOwR03hD/oeoISeMrgCuAp1SHqCc3A0/IzLuqQ5oiIlYALgQ2qG4RdwAbZ+aV1SGSxtccYJXqCPXs0cBbqyMa5nAcOU1xsCNHUrUArgXWqQ5Rz64CnpKZC6pDqkXEc4Bf4yd8N8HJmbljdYQkzQFy2r9KTfZE4A3VEdUmPg/qaBw5TXA9sHd1hCRBZ+gsrI7QrB1UHdAA7wA2qY4QCeyemTdXh0gSeKIzKraIiOdWR1SJiPWBD1Z3CICjMvPU6ghJesAcYOyf7RgRB1YHVIiIAL4GrFDdIi4B3lsdIUmLm0PnYWS13xsiYq3qiAL7AttUR4j5wC6ZOb86RJIWN4fOO2jUfssB+1VHDFNEPAH4ZHWHAHhvZl5SHSFJD+XQGS37RcRy1RFD9DXgEdUR4lQ6b4mXpMZx6IyWNYE3VkcMQ0TsA2xX3SFuBvbITH+oQVIjzQH+UB2hvhr5h5Ij4onAEdUdAmCfzLyuOkKSJuOJzujZPCK2rI4YlImfsjoaWLW6RRydmd+rjpCkqcwBrgHuqw5RX43yqc6+wLbVEeJ/gYOrIyRpOpGZRMRvgWdUx6hv7gPWG7UrhYhYj85ntfgi2loLgRdm5pnVIZI0nTkT//mb0gr127KM2I+aT1xZfR1HThMc6ciR1BYOndG1b0QsXx3RR28DXlwdIS4D3l8dIUndcuiMrscCb6qO6IeIeBLwT9UdYgGwm59+LKlNHhg6F+I7r0ZR6x9KXuzKauXqFvGxzDyvOkKSZmIOQGbeTedIWqNl04h4QXXELL0deFF1hDgf+Eh1hCTN1JzF/vzXZRUapNae6kTEk4FPVHeI+cDumenHUEhqncWHjs/pjKYdI+Jx1REz5ZVVoxyemZdWR0hSLxw6o28usH91RA8OALapjhBn4es2JLVYPPAuvom3Xs8Dxunt1+PiJuDxmXlPdUg3IuIpwEXAStUtY+4u4DmZeUV1iCT1atGJTmbeC5xb2KLBeQywc3VENyJiDp0rK0dOvfc4ciS13ZyH/NenlVRoGNryUPJhwNbVEeJ04F+qIyRpthZdXQFM/CiyH+0+urbJzF9WR0wmIl5I5xfYZapbxtztwLMz8+rqEEmarYee6JxD5zkdjabGnupExGOBb+HIaYKDHTmSRsUSQyczFwBnFLVo8HaceNC3USaeyzkeWLu6RfwgM4+pjpCkfnnoiQ74nM4omwO8qzpiKd4HbFcdIW4G9q6OkKR+WuIZHYCIeAbw25ocDcF84EmZeX11CEBEvIjOuPbKqt5OmXlSdYQk9dPDTnQy8zKgEb8IaiCWB/6+OgIWPZdzAo6cJvi2I0fSKFra1RV4fTXq9ouIR1YGTDyX8018LqcJ/kQ7Pz1bkqbl0BlPq1L/C9v7gZcWN6hjn8y8uTpCkgbhYc/oAETEOsC1w8/REN0IrJeZdw/7G0fEi+mM6cmGtobnmMzcszpCkgZlqb/QZOZ1wP8MuUXD9Vhg6L/ARcSadJ7LceTUuxo4uDpCkgZpql9svL4afe+MiLnD+maLPZez1rC+pyaVwJ6ZeXt1iCQNkkNnvK0HHDDE7/cPwLZD/H6a3Bcy8/TqCEkatKU+owMQEY+g8wFiQ/sdv0rcATwjM/84yG8SEdsCP8Erqya4EtgoM++qDpGkQZv0F52JI+1zh9iiGqsAnx3kN4iIZwL/hiOnCRYCuztyJI2L6X7h8fpqPLw2Il49iC8cEesCPwZKP7dHixyRmWdVR0jSsEx6dQUQEVsDvxhejgpdTecK685+fcGJDyU8E3hmv76mZuW3wKaZOb86RJKGZboTnbPpPMOh0fcE4B/79cUiYnng+zhymmIBsJsjR9K4mXLoZOZ9eKIzTg6OiI1m+0Umfoz8eGCb2SepTz6SmedXR0jSsHXzcKjP6YyPZYCvTpzGzMZngNf3oUf9cR7w0eoISarQzdA5deAVapLNgWMjInr5myPiPQz3s3k0tQXAXpm5oDpEkipMO3Qy81I6bzfW+HgjcMRM/6aI2BX4eP9zNAufycyLqiMkqUq3n2viJ6iOn0Mi4qBu/+KI2A74OtDTSZAG4irgg9URklSp26Hjczrj6ciImPZZm4h4LXAysOzgkzQDb+/nxwVIUhs5dDSVOcBxEfHSyf6CiWdyvgesPLQqdeM7mfnD6ghJqtbV0MnMa4DLB9yiZloB+K+I+HhELDqxiYg1I+JY4BN4XdU0twFdXztK0iib8pORl/gLIz4PvH2wOWq46+i8mHMF4G/wqqqp3p6ZX6iOkKQmmMnQeTWdT7qV1FznAM/PzIXVIZLUBDMZOisDN9H53byk5llA511WF1eHSFJTdPswMhM/vfHTAbZImp0jHTmStKSuh86EUwZSIWm2/kAfX8oqSaNipkPnBwOpkDRb+2fmXdURktQ0Mxo6Ez9mfsGAWiT15tuZ+aPqCElqopme6IDXV1KT+Jk5kjQFh47Ubu/NTF+6K0mT6PrHyxf9DREBXAusPZAiSd36FfCCnOk/xJI0RmZ8ojPxL1UfSpZqLQD2deRI0tR6uboCr6+kap/KzEuqIySp6WZ8dQUQESvR+ZTkFfteJGk61wNPzcw7qkMkqel6OtGZ+LyO0/vcIqk7hzpyJKk7vV5dgddXUoXfAMdWR0hSW/R0dQUQEesA1wDR1yJJU9kqM/+7OkKS2qLnE53MvA44v48tkqZ2oiNHkmZmNldX4PWVNCx3A++pjpCktnHoSO1wRGZeXR0hSW3T8zM6i75AxDXA4/qTI2kprgU2yMw7q0MkqW1me6IDfkqyNGiHOnIkqTf9GDpeX0mDcy5wfHWEJLVVP66uVgBuBlbqS5GkByyg89LOc6tDJKmtZn2ik5n3AKf1oUXSkg535EjS7PTj6gq8vpL67SfAJ6ojJKntZn11BRARa9P5yRA/JVmaveuB52TmjdUhktR2fTnRyczr6byDR9LsLAR2ceRIUn/06+oKvL6S+uHDmfmz6ghJGhV9uboCiIjnABf05YtJ4+nnwLaZubA6RJJGRd+GDkBEXA08vm9fUBofNwEbTbwsV5LUJ/28ugI/JVnq1Z6OHEnqv34PHZ/TkWbus5npPzuSNAD9vrpans6nJK/cty8qjbYLgS0zc351iCSNor6e6Ez8y/rUfn5NaYTdCezkyJGkwen31RV4fSV164DMvLw6QpJGWV+vrgAiYk06n+zqpyRLkzsxM3eujpCkUdf3oQMQEWcDW/T9C0uj4f+AjTPz9uoQSRp1g7i6Aq+vpMncB+zsyJGk4XDoSMP1D5l5bnWEJI2LgVxdAUTEH4AnDuSLS+10KrB9DuofOknSwwzqRAf8lGRpcTcCuzlyJGm4Bjl0vL6SOhLYPTP/VB0iSeNmkEPnZ8AdA/z6UlscmZk/ro6QpHE0sKGTmfcCPxnU15da4jzgsOoISRpXgzzRAa+vNN7m0XnFw73VIZI0rgY9dH4I3D/g7yE11d9n5pXVEZI0zgY6dDLzz8CZg/weUkP9KDOPro6QpHE36BMdgO8N4XtITXIr8NbqCEnScIbOyXR+vFYaFwdm5nXVEZKkIQydzPwj8OtBfx+pIU7OzOOrIyRJHcM40QGvrzQebgL2q46QJD3IoSP1z9sy88bqCEnSg4YydDLzCuCSYXwvqciJmflv1RGSpCUN60QHPNXR6PoT8PbqCEnSwzl0pNnbJzNvqY6QJD3c0IZOZl4M+CmxGjXfyExfdSJJDTXMEx3wVEej5Rrg4OoISdLkHDpS7/bKzNuqIyRJkxv20DkXuHbI31MahC9l5k+qIyRJUxvq0MnMpPNKCKnNfg+8qzpCkjS9YZ/oAHy34HtK/ZLAWzLzjuoQSdL0KobOL+l8VL7URp/NzDOqIyRJ3Rn60MnM+4HvD/v7Sn3wO+DQ6ghJUvcqTnTA6yu1z/3A7pl5d3WIJKl7VUPndOD2ou8t9eKIzDy7OkKSNDMlQycz7wV+UPG9pR78FvhAdYQkaeaqTnTADw9UOywAdsvM+dUhkqSZqxw6PwJ83kFN99HMPL86QpLUm7Khk5l3AT+u+v5SFy4APlodIUnqXeWJDnh9pea6l85PWd1XHSJJ6l310DkF8BcSNdEHM/OS6ghJ0uyUDp2JNz+fVtkgLcU5wD9VR0iSZq/6RAfg+OoAaTF307myur86RJI0e00YOv8OzKuOkCa8LzMvr46QJPVH+dCZ+Omrf6vukOi8cPao6ghJUv+UD50J/1odoLF3J7BHZi6sDpEk9U9Ths4vgKuqIzTW3pWZ/1cdIUnqr0YMncxM4LjqDo2t04AvVUdIkvovOhujXkSsD/yuukNj53bg2Zl5dXWIJKn/GnGiA5CZVwBnV3do7Py9I0eSRldjhs4EH0rWMP0gM79eHSFJGpzGXF0BRMSjgOuB5atbNPJuAp6VmTdUh0iSBqdRJzqZeSvwg+oOjYV9HDmSNPoaNXQmHFsdoJH3jcw8uTpCkjR4jbq6AoiIZYFrgTWqWzSSrgI2zMzbq0MkSYPXuBOdzLwP+FZ1h0bSQjov7HTkSNKYaNzQmeD1lQbhyMw8ozpCkjQ8jbu6ekBE/BZ4RnWHRsYlwOaZOb86RJI0PE090QFPddQ/9wJvduRI0vhp8tA5ns4zFdJsHZ6ZF1VHSJKGr7FXVwAR8RNgu+oOtdovgRdlpqNZksZQk090wFdCaHbm0fkpK0eOJI2ppg+d7wB/qo5Qax2cmb+vjpAk1Wn00MnMe4HPV3eolb7vCzslSY1+RgcgIlYH/gisVN2i1rgReHZm3lgdIkmq1egTHYDMvAX4RnWHWmVvR44kCVpwogMQEU8BLqcFw0zljs7Mt1ZHSJKaoRVDByAiTgZeW92hRvs9sFFmzqsOkSQ1Q5tOSD5VHaBGWwjs5siRJC2uNUMnM88Ezq3uUGP988T/j0iStEhrhs4ET3W0NBcBh1dHSJKapzXP6ABExDLAlcB6xSlqjvnAZpl5aXWIJKl5WnWik5n3A0dVd6hR3ufIkSRNplUnOgARsSqdDxBcrbpF5c4AXuK7rCRJk2nViQ7AxE/VfKW6Q+Vuxxd2SpKm0bqhM+GzwILqCJU6MDOvqo6QJDVbK4dOZl4DnFTdoTLfy8x/rY6QJDVf657ReUBEbAycB0R1i4bqBuBZmXlTdYgkqflaeaIDkJkXACdWd2jo9nLkSJK61doTHYCIeAKdl32uUN2iofhKZu5bHSFJao/WnugAZObVwJHVHRqK/wUOqY6QJLVLq090ACJiFeAKYK3qFg3M/cDWmfmr6hBJUru0+kQHIDPvAN5f3aGB+qQjR5LUi9af6ABExBzgfGCj6hb13QXAFpl5X3WIJKl9Wn+iAzDx6bjvqO5Q390D7OrIkST1aiSGDkBmng6cUt2hvjo0My+rjpAktddIXF09ICI2AC4Blq1u0az9EHhVjtL/g0qShm5kTnQAMvNy4IvVHZq1q4DdHDmSpNkaqRMdgIhYHbgSeFR1i3pyL50fJT+3OkSS1H4jdaIDkJm3AB+q7lDP3unIkST1y8id6ABExLLAb4H1q1s0I9/OzDdVR0iSRsfInegATPw48sHVHZqR3wFvrY6QJI2WkRw6AJn5n8B3qjvUlbuB12fmvOoQSdJoGdmhM+Eg4LbqCE1r/8y8pDpCkjR6RnroZOb1wGHVHZrS1zPzG9URkqTRNJIPIy9u4j1YZwFbVLfoYS4GtszMu6tDJEmjaeSHDkBEbAicB8ytbtEi84BNM/OK6hBJ0uga6aurB2TmxcCnqzu0SAJvceRIkgZtLE50ACJiJTqfrbNecYrg4Mw8qjpCkjT6xuJEByAz7wL2r+4QH3HkSJKGZWxOdB4QEScBb6zuGFNfzEzHpiRpaMZx6KwN/A+wWnXLmDkJ+NvMXFgdIkkaH2NzdfWAic/WObS6Y8z8F/BmR44kadjGbuhM+BJwdnXEGPhfYC/glRPvH5MkaajG7urqARHxbOA3wHLVLSPocuCjwAmZeX91jCRpfI3riQ4T71Z6GnA04GnD7CWdT6D+W+AZmXmcI0eSVG1sT3QWFxHrAC8HtgO2BdaoLWqVc+g8aPxvmfnH6hhJkhbn0HmIiAhgIzqjZytgQ/yQwcUtpHPl9x3gO5l5VXGPJEmTcuh0ISJWA55NZwBtOPGfzwJWruwakjvoPLh9FvDfwNmZeXttkiRJ3XHo9GjirehP5sHhsyEPnv5EXdmszAOuAC6jM27+G7jEZ20kSW3l0OmziHgES57+PBNYF1gbWL4w7QHzgavo/GTU7xb74/KJzxiSJGlkOHSGZOLZn0cDj1vKH48FVpz4Y4VJ/nx5Oj8dNn8pf9y72J/fAtwA3Djxn0v8kZl/Gfj/spIkNcT/B+UL4fgm2GKcAAAAAElFTkSuQmCC;" parent="ZEkZ2hJIipyatHiksb2i-1" vertex="1">
          <mxGeometry x="378.9" y="397" width="9.6" height="10" as="geometry" />
        </mxCell>
        <mxCell id="Ci3oL-zlfUf6QbDjgH_t-52" value="&lt;font style=&quot;font-size: 8px;&quot;&gt;Status&lt;/font&gt;" style="rounded=0;whiteSpace=wrap;html=1;" parent="ZEkZ2hJIipyatHiksb2i-1" vertex="1">
          <mxGeometry x="278.5" y="384" width="40" height="10" as="geometry" />
        </mxCell>
        <mxCell id="Ci3oL-zlfUf6QbDjgH_t-53" value="&lt;font style=&quot;font-size: 8px;&quot;&gt;Rent&lt;/font&gt;" style="rounded=0;whiteSpace=wrap;html=1;" parent="ZEkZ2hJIipyatHiksb2i-1" vertex="1">
          <mxGeometry x="318.5" y="384" width="40" height="10" as="geometry" />
        </mxCell>
        <mxCell id="Ci3oL-zlfUf6QbDjgH_t-54" value="" style="rounded=0;whiteSpace=wrap;html=1;" parent="ZEkZ2hJIipyatHiksb2i-1" vertex="1">
          <mxGeometry x="140" y="287" width="110" height="180" as="geometry" />
        </mxCell>
        <mxCell id="Ci3oL-zlfUf6QbDjgH_t-55" value="" style="rounded=0;whiteSpace=wrap;html=1;" parent="ZEkZ2hJIipyatHiksb2i-1" vertex="1">
          <mxGeometry x="230" y="287" width="20" height="20" as="geometry" />
        </mxCell>
        <mxCell id="Ci3oL-zlfUf6QbDjgH_t-56" value="" style="verticalLabelPosition=bottom;verticalAlign=top;html=1;shape=mxgraph.basic.heart;" parent="ZEkZ2hJIipyatHiksb2i-1" vertex="1">
          <mxGeometry x="230" y="287" width="20" height="20" as="geometry" />
        </mxCell>
        <mxCell id="Ci3oL-zlfUf6QbDjgH_t-57" value="" style="sketch=0;pointerEvents=1;shadow=0;dashed=0;html=1;strokeColor=none;fillColor=#505050;labelPosition=center;verticalLabelPosition=bottom;verticalAlign=top;outlineConnect=0;align=center;shape=mxgraph.office.concepts.home;" parent="ZEkZ2hJIipyatHiksb2i-1" vertex="1">
          <mxGeometry x="169.5" y="307" width="51" height="50" as="geometry" />
        </mxCell>
        <mxCell id="Ci3oL-zlfUf6QbDjgH_t-58" value="" style="rounded=0;whiteSpace=wrap;html=1;" parent="ZEkZ2hJIipyatHiksb2i-1" vertex="1">
          <mxGeometry x="140" y="391" width="110" height="80" as="geometry" />
        </mxCell>
        <mxCell id="Ci3oL-zlfUf6QbDjgH_t-59" value="&lt;font style=&quot;font-size: 10px;&quot;&gt;City, Province, Country&lt;/font&gt;" style="rounded=0;whiteSpace=wrap;html=1;" parent="ZEkZ2hJIipyatHiksb2i-1" vertex="1">
          <mxGeometry x="140" y="397" width="110" height="20" as="geometry" />
        </mxCell>
        <mxCell id="Ci3oL-zlfUf6QbDjgH_t-60" value="&lt;font style=&quot;font-size: 10px;&quot;&gt;Location&lt;/font&gt;" style="rounded=0;whiteSpace=wrap;html=1;" parent="ZEkZ2hJIipyatHiksb2i-1" vertex="1">
          <mxGeometry x="140" y="417" width="110" height="10" as="geometry" />
        </mxCell>
        <mxCell id="Ci3oL-zlfUf6QbDjgH_t-61" value="Description" style="rounded=0;whiteSpace=wrap;html=1;" parent="ZEkZ2hJIipyatHiksb2i-1" vertex="1">
          <mxGeometry x="140" y="447" width="110" height="24" as="geometry" />
        </mxCell>
        <mxCell id="Ci3oL-zlfUf6QbDjgH_t-62" value="&lt;font style=&quot;font-size: 8px;&quot;&gt;NÂº Rooms -Square metres&lt;/font&gt;" style="rounded=0;whiteSpace=wrap;html=1;" parent="ZEkZ2hJIipyatHiksb2i-1" vertex="1">
          <mxGeometry x="140" y="427" width="110" height="20" as="geometry" />
        </mxCell>
        <mxCell id="Ci3oL-zlfUf6QbDjgH_t-63" value="&lt;font style=&quot;font-size: 8px;&quot;&gt;Shared&lt;/font&gt;" style="rounded=0;whiteSpace=wrap;html=1;" parent="ZEkZ2hJIipyatHiksb2i-1" vertex="1">
          <mxGeometry x="220" y="384" width="30.5" height="10" as="geometry" />
        </mxCell>
        <mxCell id="Ci3oL-zlfUf6QbDjgH_t-64" value="" style="triangle;whiteSpace=wrap;html=1;" parent="ZEkZ2hJIipyatHiksb2i-1" vertex="1">
          <mxGeometry x="240" y="337" width="10" height="10" as="geometry" />
        </mxCell>
        <mxCell id="Ci3oL-zlfUf6QbDjgH_t-65" value="" style="triangle;whiteSpace=wrap;html=1;rotation=-180;" parent="ZEkZ2hJIipyatHiksb2i-1" vertex="1">
          <mxGeometry x="140" y="337" width="10" height="10" as="geometry" />
        </mxCell>
        <mxCell id="Ci3oL-zlfUf6QbDjgH_t-66" value="" style="ellipse;whiteSpace=wrap;html=1;" parent="ZEkZ2hJIipyatHiksb2i-1" vertex="1">
          <mxGeometry x="160" y="367" width="10" height="10" as="geometry" />
        </mxCell>
        <mxCell id="Ci3oL-zlfUf6QbDjgH_t-67" value="" style="ellipse;whiteSpace=wrap;html=1;" parent="ZEkZ2hJIipyatHiksb2i-1" vertex="1">
          <mxGeometry x="180" y="367" width="10" height="10" as="geometry" />
        </mxCell>
        <mxCell id="Ci3oL-zlfUf6QbDjgH_t-68" value="" style="ellipse;whiteSpace=wrap;html=1;" parent="ZEkZ2hJIipyatHiksb2i-1" vertex="1">
          <mxGeometry x="200" y="367" width="10" height="10" as="geometry" />
        </mxCell>
        <mxCell id="Ci3oL-zlfUf6QbDjgH_t-69" value="" style="ellipse;whiteSpace=wrap;html=1;" parent="ZEkZ2hJIipyatHiksb2i-1" vertex="1">
          <mxGeometry x="220.5" y="367" width="10" height="10" as="geometry" />
        </mxCell>
        <mxCell id="Ci3oL-zlfUf6QbDjgH_t-70" value="" style="shape=image;verticalLabelPosition=bottom;labelBackgroundColor=default;verticalAlign=top;aspect=fixed;imageAspect=0;image=data:image/png,iVBORw0KGgoAAAANSUhEUgAAAjoAAAJSCAYAAADK72/3AAAABHNCSVQICAgIfAhkiAAAAAlwSFlzAAA2XwAANl8BwcvkVwAAABl0RVh0U29mdHdhcmUAd3d3Lmlua3NjYXBlLm9yZ5vuPBoAAAAddEVYdFRpdGxlAG15IHJlZCBjaGVjayBtYXJrIC0gcG5npftX4AAAIABJREFUeJzt3XmUpGV5v/HrHoYdRFFkERWjiCvIJqiACyIGd+ICAQFBFjEswRU0aNxNEEWNO2IAETRKDBqNgIoSBJQdyQ8hUZBFkEUYtoFh7t8f1QwzMN1dXV1V9/tWXZ9zOJIEuq/kBOY7z/N2vZGZSJIkzVZELAOsDjxmmj9WAeYCy07853R/3AL8YZI/rsvMhZM2OXQkSdJUIiKAdYH1gacAfwWswcMHzKOAGHLefcD5wDeBkzLzxsX/hw4dSZL0wJh5HA+OmfUX+/MnAyvW1XXtfuCLwHsy8y5w6EiSNFYiYmljZn3aM2a6cQWwQ2Ze6dCRJGlERcSywCbAVhN/vIDOldM4+A3wfIeOJEkjIiJWBLbmwWGzBbBSaVStg+ZWF0iSpN5FxOrAK4DXAtsDK9cWNcp2nuhIktQyEfEEOsPmtXROcDy4WLo/+38YSZJaICIeAewM7AVsXpzTFuHQkSSpwSLi+cBbgTfitdRM3ebQkSSpYSLiMcBudAbO04tz2uw6h44kSQ0REX8FvBvYA1i+tmYknObDyJIkFYuIZwKHAjsByxTnjJItHDqSJBWJiOcChwGvZvjviBp1NwDreHUlSdKQRcSWwEeAbatbRtjnMnOhJzqSJA1JRKwFfBJ4M57gDNI84AmZ+RdPdCRJGrCJd04dBBwOrFqcMw6+nJl/Ad9eLknSQEXEy4HPABtUt4yJe4EnZeZ14EdGS5I0EBHxZODTwKuqW8bMsQ+MHPBER5KkvoqIlen8JNU78LNwhm0h8LTMvOKB/4YnOpIk9UlE7Az8M/C46pYx9b3FRw54oiNJ0qxFxEbA5+i8SVw1EtgsM89f/L85pyhGkqTWi4hHR8QXgPNw5FQ7+qEjBzzRkSRpxiIigP3ofOjf6sU5gpuBDTLz5of+D3xGR5KkGYiIJwHfALYpTtGD3ru0kQOe6EiS1LWI2I/Ow8arVLdokbOB5+ckg8ahI0nSNCJiXeDrwHbVLVrC/cDmmXnBZH+BDyNLkjSFiNgDuBRHThN9YaqRA57oSJK0VBMv4PwKfrJxU91A5wHk26b6izzRkSTpISLiTXROcRw5zfXO6UYOeKIjSdIiEfEY4AvAG6pbNKUzMvNF3fyFDh1JkoCIeAVwNLBmdYumdB/wnMy8rJu/2KsrSdJYi4hlI+II4BQcOW3wj92OHPBER5I0xiJiPeBEYIvaEnXpV8DWmXl/t3+DQ0eSNJYi4nV0PhvnkdUt6sqddK6srpzJ3+TVlSRprETE8hHxOeB7OHLa5JCZjhzwREeSNEYi4inAScAm1S2akR9m5it7+RsdOpKksRARO9H5AMBVq1s0IzcBz87MP/XyN3t1JUkaaRM/VfVF4Fs4ctpo315HDsDcfpZIktQkEbEa8F1g2+oW9eRfM/N7s/kCXl1JkkZSRDwJ+CHw9OoW9eQqYMPMvH02X8SrK0nSyImILYGzceS01UJg99mOHHDoSJJGTES8AfgZ8NjqFvXsyMw8ox9fyKsrSdLIiIj3Ah8DorpFPbsU2Cwz5/fji3miI0kaCRFxGPBxHDltdi+wa79GDjh0JEkjICL2Aj5a3aFZOzwzL+rnF/TqSpLUahHxSDo/ofOI6hbNypnACzNzYT+/qCc6kqS22xtHTtvNA3br98gBh44kqcUiYg6wf3WHZu3gzPz9IL6wQ0eS1GavANarjtCsfD8zvz6oL+4zOpKkVoqIZYBfAZtXt6hnNwLPysw/D+obeKIjSWqrd+DIabu9BzlywBMdSVILRcQGwIXACtUt6tnXMnPvQX8Th44kqVUmHkA+E3hedYt6dgmwZWbeNehv5NWVJKltDsKR02bzgNcPY+SAJzqSpBaJiKfSubJasbpFPXtjZn5nWN/MEx1JUitExMrAd3HktNlRwxw54ImOJKklIuIk4I3VHerZ2cA2mXnfML+pJzqSpMaLiHfjyGmzm+hcWQ115IAnOpKkhouIlwI/BpapblFPFgJ/nZk/qfjmnuhIkhorItYDTsSR02Yfrho54ImOJKmhImJF4CzgOdUt6tlP6Jzm9P2t5N3yREeS1FRfwZHTZpfReS6nbOSAQ0eS1EARcRCwa3WHenYj8IrMvK06xKsrSVKjRMQLgdOAudUt6sk9wIsz8+zqEPBER5LUIBGxLvBtHDltlcBuTRk54NCRJDVERCwPfA94bHWLenbYsD/5eDoOHUlSU3wB2Lw6Qj37emZ+ojrioXxGR5JULiLeRmfoqJ1+Bmxf8cnH03HoSJJKRcTzgZ8DyxanqDdXAFtm5i3VIUvj0JEklYmItYHzgLWrW9STW+mMnN9Vh0zGZ3QkSSUmHj4+GUdOW90HvL7JIwccOpKkOl8BtqiOUM/enpk/rY6YjkNHkjR0EXEIsFt1h3p2ZGZ+tTqiGz6jI0kaqojYHvghvpG8rX4AvKb6HVbdcuhIkoYmIp4KnAM8srpFPbkYeEFm3lEd0i2HjiRpKCJiNeBs4GnVLerJDcBzM/Pq6pCZ8BkdSdLARcQc4AQcOW11D53rqlaNHHDoSJKG4+PADtUR6tlbMvOc6oheOHQkSQMVEbsA767uUM8+mJknVkf0ymd0JEkDExGbA78AVqhuUU++lZl/Wx0xGw4dSdJATLze4dfA46pb1JOzgRdn5j3VIbPh1ZUkqe8We72DI6edrgZe2/aRAw4dSdJgfBlf79BW84BXZuYN1SH94NCRJPXVxOsddq/uUE8WAjtn5iXVIf3iMzqSpL7x9Q6td0hmfro6op8cOpKkvoiI9YFz8fUObfXVzNynOqLfHDqSpFnz9Q6tdzbwwsy8tzqk33xGR5I0K77eofVuBF4/iiMHHDqSpNnz9Q7ttQB4Y2ZeWx0yKA4dSVLPfL1D6707M8+ojhgkn9GRJPXE1zu03omZuXN1xKA5dCRJM+brHVrvUmDLzLyzOmTQvLqSJM3IxOsdvocjp61uA143DiMHHDqSpJn7MrBldYR6ksCbM/PK6pBhcehIkroWEW/D1zu02Ucy85TqiGHyGR1JUlci4rnAL4HlqlvUkx/ReVnnwuqQYXLoSJKmFRGPBs4HnlDdop78H7BZZt5aHTJsXl1Jkqa02CcfO3La6W5gx3EcOeDQkSRN74PAy6oj1LN9MvOi6ogqXl1JkiYVETsAPwCiukU9+VxmHlgdUcmhI0laqohYDzgPWL22RD06E3hJZt5XHVLJoSNJepiJDwX8b2DT6hb15Hpgk8z8U3VINZ/RkSQtzedw5LTVfcAbHDkdDh1J0hIi4i3A3tUd6tkhmfnf1RFN4dWVJGmRiHgO8Ct8I3lbHZeZu1VHNIlDR5IEQEQ8ks7Dx39V3aKeXAg8PzPvrg5pEq+uJElERADH4shpq1vpfCigI+chHDqSJIBDgVdVR6gnC4G/zczfV4c0kUNHksZcRGwLfKi6Qz37YGb+uDqiqXxGR5LGWESsS+dlnWtUt6gnpwCvSX8xn5RDR5LGVEQsC/wC2LK6RT25Atg8M2+rDmkyr64kaXwdiSOnre6k8/CxI2caDh1JGkMRsTPwd9Ud6tlemXlpdUQbeHUlSWMmIp4JnAOsXN2inhyZme+ojmgLh44kjZGIWBX4NbBBdYt68nNgu8xcUB3SFl5dSdJ4+TqOnLa6FniTI2dmHDqSNCYi4hDg9dUd6sm9wN9k5o3VIW3j1ZUkjYGI2Br4KTC3ukU92S8zv1wd0UYOHUkacRGxFp0PBVy7ukU9OSYz96yOaCuHjiSNsIiYC5wGvLC6RT05D9gqM++pDmkrn9GRpNH2cRw5bXUznedyHDmz4ImOJI2oiNgR+G51h3qyEHh5Zp5aHdJ2nuhI0giKiKcCx1R3qGfvc+T0hyc6kjRiImIlOp98/KzqFvXk5MzcsTpiVHiiI0mj5ys4ctrqcmD36ohR4tCRpBESEfsDu1R3qCd3AK/LzHnVIaPEqytJGhERsQXwC2C56hb15PWZ6cPjfeaJjiSNgIh4NPAdHDlt9U+OnMHwREeSWi4iAvgBsEN1i3pyOrB9Zt5fHTKKPNGRpPZ7F46ctvojsJMjZ3A80ZGkFouIFwA/x5d1ttF8YOvM/HV1yCjzREeSWmriuZwTceS01d85cgbPoSNJLTTxXM5xwLrVLerJVzPza9UR48ChI0nt9B7gr6sj1JNzgQOqI8aFz+hIUstExFbAz/DKqo3+DGyamX+sDhkXnuhIUotExGPwuZy2up/OT1g5cobIoSNJLbHYczmPq25RT96bmT+tjhg3Dh1Jao/3Ai+vjlBPvpOZR1RHjCOf0ZGkFoiIrek8l7NMdYtm7DJgi8y8ozpkHDl0JKnhImIN4AK8smqj24HnZubl1SHjyqsrSWown8tptQR2d+TUcuhIUrMdCmxfHaGefDwz/706Ytx5dSVJDRUR2wA/xedy2ugHwGsyc2F1yLhz6EhSA008l3MhsE51i2bsQjov6/Th4wbw6kqSGiYi5gDH48hpo+uAVzpymsOhI0nNcxjwsuoIzdidwKsy89rqED3IqytJapCIeCFwOj6X0zYLgddl5n9Uh2hJnuhIUkNExGOBb+HIaaN3OXKayaEjSQ0w8VzON4G1q1s0Y1/KzCOrI7R0Dh1Jaob3AS+tjtCM/QQ4oDpCk/MZHUkqFhEvBk7FK6u2+S3w/My8vTpEk3PoSFKhiFiTzueurFXdohm5gc6LOq+qDtHUvLqSpCKLPZfjyGmXu+l86rEjpwUcOpJU5x+AbasjNCMPvKjznOoQdcerK0kqEBEvofNcjr/hbJfDMvPj1RHqnkNHkobM53Ja65jM3LM6QjPj0JGkIZp4LudU4CXVLZqRnwHbZ+Z91SGaGY9MJWm4DseR0za/A/7GkdNOnuhI0pBExLZ0PmDO32S2xy3Alpl5RXWIeuPQkaQhiIi16DyXs2Z1i7p2H7BdZp5RHaLe+bsKSRqwiedyTsCR0zb7OnLaz6EjSYP3AeDF1RGakU9m5jHVEZo9r64kaYAi4qXAf+FvLNvkZDoPH/sL5Ahw6EjSgETE2nSey3lsdYu6dh6wTWbeVR2i/vB3GJI0ABGxDJ3nchw57XEt8GpHzmhx6EjSYHwQeFFxg7p3J/CqzLyuOkT95dWVJPVZRGwH/Bh/M9kmO2bmydUR6j//IZSkPpp4Lud4/Pdrm/yLI2d0eaIjSX3ie6xa6bfAZpl5T3WIBsPfcUhS/xyGI6dN7gF2duSMNk90JKkPImIr4OfAMsUp6t6Bmfm56ggNlkNHkmYpIlan83k5j69uUdf+MzNfUR2hwfPqSpJm7+s4ctrkBuAt1REaDoeOJM1CRBwAvKa6Q11LYI/MvLE6RMPh1ZUk9SgiNgZ+BSxf3aKuHZWZB1dHaHgcOpLUg4hYBTgfWL+6RV27GHhuZs6vDtHweHUlSb35Io6cNrmbzo+SO3LGjENHkmYoInYHdq3u0Iy8MzMvq47Q8Hl1JUkzEBEbAOcBK1e3qGunZOarqyNUw6EjSV2KiOWBc4CNqlvUteuBDTPzpuoQ1fDqSpK6dySOnDZJYHdHznhz6EhSFyLidcD+1R2akSMz89TqCNXy6kqSphERTwQuAB5V3aKuXUTnR8nvrQ5RLU90JGkKETEX+BaOnDaZD+zqyBE4dCRpOh8CnlcdoRk5LDMvrY5QM3h1JUmTiIjtgP8CorpFXfsp8NL0FzdNcOhI0lJExJp0nvNYs7pFXfsLnR8l/2N1iJrDqytJeoiICOA4HDlt83ZHjh7KoSNJD/ceYLvqCM3IiZl5QnWEmserK0laTEQ8D/gFMLe6RV27hs6V1a3VIWoeT3QkaUJEPJLOj5I7ctojgT0cOZqMQ0eSHnQ08MTqCM3IUZl5enWEmsurK0kCImJ/4F+qOzQjvwU2y8x7qkPUXA4dSWMvIjYCzgZWqG5R1+4FtsjMC6tD1GxeXUkaaxGxMnAijpy2OdyRo244dCSNu88DT6uO0Iz8Evjn6gi1g1dXksZWROxK54MB1R63Axtl5h+qQ9QODh1JYyki1gfOB1apblHXEvibzDy5OkTt4dWVpLETEcsBJ+HIaZtPOnI0Uw4dSePon4GNqyM0I6cD76+OUPt4dSVprETEq4HvV3doRv4IbJKZN1WHqH0cOpLGRkQ8HrgQWL26RV2bD2yTmedWh6idvLqSNBYiYhngBBw5bXOgI0ez4dCRNC4+CGxVHaEZOSYzv1IdoXbz6krSyIuIlwCn4m/u2uQ8YCvfY6XZcuhIGmkRsQZwEbB2dYu6dh3w3My8tjpE7efvbiSNrIgI4FgcOW1yN/AaR476xaEjaZS9E3h5dYS6lsDumfmb6hCNDq+uJI2kiHgucCawbHWLuvaBzPxQdYRGi0NH0siJiNWAC4AnVbeoaydm5s7VERo9Xl1JGkVfxpHTJucCb6mO0Ghy6EgaKRHxFuBN1R3q2jXAa/0xcg2KV1eSRkZEPBU4H1i5ukVduYvOZ+VcUB2i0eWJjqSREBHLAd/CkdMWCbzZkaNBc+hIGhUfAzapjlDX3p+Z36uO0Ojz6kpS60XEy4AfA1Hdoq58MzN3rY7QeHDoSGq1iVc8XAysVd2irvwKeHFmzq8O0Xjw6kpS230DR05bXA28zpGjYXLoSGqtiDgI2KG6Q125G3h1Zt5QHaLx4tWVpFaKiI2Ac4Dlq1vUlT0z85jqCI0fT3QktU5ErETnR8kdOe1wjCNHVRw6ktro08DTqyPUlUuAt1dHaHx5dSWpVSJiR+C71R3qyjxgs8z8XXWIxpcnOpJaIyIeD3ytukNd29uRo2oOHUmtEBFzgOOBR1W3qCv/kpknVUdIDh1JbfE+YJvqCHXlN8Ah1RES+IyOpBaIiOcBvwDmVrdoWrcCm2TmH6pDJPBER1LDRcRqwAk4ctoggT0cOWoSh46kpvsSsF51hLpyRGb+R3WEtDivriQ1VkTsAfhBc+1wJp2XdS6oDpEW59CR1EgRsT5wPrBKdYum9Wdg48y8tjpEeiivriQ1TkQsS+cVD46c5lsI7OLIUVM5dCQ10UeBTasj1JUPZ+ap1RHSZLy6ktQoEbEd8F9AVLdoWqcB22fmwuoQaTIOHUmNERFrABcDa1W3aFrX0Xku58bqEGkqXl1JapJjcOS0wQJgJ0eO2sChI6kRIuJA4BXVHerK+zLzl9URUje8upJULiI2BM4Flq9u0bROAV6T/uKhlnDoSCoVESvSeQnkM6pbNK0/0HmP1a3VIVK3vLqSVO3TOHLa4F7gjY4ctY1DR1KZiHgdsG91h7ryjsz8dXWENFNeXUkqERHrAhcBq1e3aFrfzsw3VUdIvXDoSBq6iJgD/BR4YXWLpvU7YLPMnFcdIvXCqytJFQ7FkdMGdwNvcOSozTzRkTRUEbEl8EtgbnWLprVXZn69OkKaDYeOpKGJiEcAFwJPqm7RtL6RmW+pjpBmy6srScP0JRw5bXApsH91hNQPDh1JQxERuwM7V3doWnfR+bycu6tDpH5w6EgauIh4CvD56g515aDM/J/qCKlffEZH0kBFxLLAWcBm1S2alp+Xo5HjiY6kQfsIjpw2+AOwT3WE1G+e6EgamIh4KfATIKpbNKUFwNaZeXZ1iNRvnuhIGoiIeDTwrzhy2uAfHDkaVZ7oSBqIiPgusGN1h6Z1GvCy9BcDjSiHjqS+i4i3AH6ibvP9GdgwM/9UHSINikNHUl9FxJPpfPrxKtUtmlICr8jMH1WHSIPkMzqS+iYilgGOw5HTBp925GgcOHQk9dP7gOdVR2ha59F5g7w08ry6ktQXEbEFcCa+lbzp5gGbZOaV1SHSMHiiI2nWImJl4HgcOW2wvyNH48ShI6kfPgM8pTpC0zouM4+vjpCGyasrSbMSEa8FTq7u0LSuoHNldUd1iDRMDh1JPYuItYBLgMdUt2hK9wLPy8zzq0OkYfPqStJsHIMjpw3e68jRuHLoSOpJRBwAvLy6Q9P6TzrPUEljyasrSTMWEc+g81ksK1S3aErXAxtl5p+rQ6QqnuhImpGIWA74Jo6cplsIvNmRo3Hn0JE0Ux8BnlMdoWl9MjNPr46Qqnl1JalrEfEi4HT8TVLT/QrYJjMXVIdI1Rw6kroSEY8ELgYeX92iKd0GPCcz/1AdIjWBvyuT1K0v4shpg70dOdKDHDqSphURuwA7VXdoWl/NzO9UR0hN4tWVpClFxBOBi4DVqls0pcuAzTPzruoQqUk80ZE0qYiYAxyLI6fp7gF2cuRID+fQkTSVdwPbVEdoWu/IzEuqI6Qm8upK0lJFxCbA2cCy1S2a0r9n5uuqI6SmcuhIepiIWBE4H3hadYum9Ec6P0p+S3WI1FReXUlamiNw5DTd/cAujhxpag4dSUuIiB2A/as7NK0PZeYvqyOkpvPqStIiEbEGcAmwZnWLpvQL4CWZeX91iNR0nuhIWtzXcOQ03S10rqwcOVIXHDqSAIiIfYBXV3doWntm5jXVEVJbeHUliYhYH7gAWLm6RVP6fGYeUB0htYlDRxpzETEXOAvYvLpFU7oI2CIz51eHSG3i1ZWkD+DIabq76LziwZEjzZAnOtIYi4gXAGcAy1S3aEpvzcyjqyOkNnLoSGMqIlalcx3ypOoWTemkzNypOkJqK6+upPH1ORw5Tfd7YJ/qCKnNHDrSGIqI1wO7V3doSguAnTPz9uoQqc0cOtKYiYjHAV+u7tC03p+Z51RHSG3nMzrSmImIHwPbV3doSqcBL0v/BS3Nmic60hiJiH1x5DTdjcCbHTlSf3iiI42JiHgScDGwSnWLJpXADpn54+oQaVR4oiONgYgI4BgcOU13pCNH6i+HjjQeDgJeWB2hKf0GOLQ6Qho1Xl1JIy4iNqDzws4Vq1s0qXnAJpl5ZXWINGo80ZFGWEQsA3wDR07Tvc2RIw2GQ0cabe8CtqyO0JSOzcxvVkdIo8qrK2lERcSz6Tz3sVx1iyb1O2DTzLyjOkQaVZ7oSCMoIpYF/hVHTpPdS+cVD44caYAcOtJoej+wcXWEpvSezDy/OkIadV5dSSMmIjYFzgbmVrdoUj/MzFdWR0jjwKEjjZCIWB44H3hGdYsmdT2wYWbeVB0ijQOvrqTR8mEcOU22ENjVkSMNj0NHGhER8XzgHdUdmtInMvOn1RHSOPHqShoBEbEScBHwlOoWTepXwDaZuaA6RBonnuhIo+GTOHKa7C90fpTckSMNmUNHarmIeAnw9uoOTWnvzLyqOkIaR15dSS0WEasClwBPrG7RpL6SmftWR0jjyhMdqd2OxJHTZJcBB1dHSOPMEx2ppSLir4H/rO7QpO4BNs/MS6tDpHHmiY7UQhHxKOBr1R2a0iGOHKmeQ0dqp88B61RHaFInZ+YXqyMkeXUltU5E7Ah8t7pDk/ojsFFm3lodIsmhI7VKRKwB/BZYo7pFS3U/8KLMPLM6RFKHV1dSu3wJR06T/aMjR2oWT3SkloiIXYDjqzs0qTOAl2TmwuoQSQ9y6EgtEBHrAJcCj6pu0VLdTOe5nGurQyQtyasrqR2+iiOnyfZ05EjN5NCRGi4i9gJ2qO7QpD6Xmf9RHSFp6by6khosItYG/gdYrbpFS3URsEVmzq8OkbR0nuhIzfZpHDlNdSewkyNHajaHjtRQEfEy4E3VHZrUgZn5/6ojJE3NqyupgSJiBTo/ZfXk6hYt1YmZuXN1hKTpeaIjNdNhOHKa6v+AfasjJHXHEx2pYSJiA+BiYLnqFj3MfcBWmXludYik7niiIzXPF3HkNNX7HTlSu3iiIzVIROwKHFfdoaU6Fdg+/Zem1CoOHakhIuJRwP8DHlvdooe5EdgwM2+oDpE0M15dSc3xcRw5TbWHI0dqJ090pAaIiC2Bs4CobtHDfD4zD6iOkNQbh45ULCLmAr8BNqpu0cNcBmyWmXdXh0jqjVdXUr2DcOQ00b3ALo4cqd080ZEKRcTj6ZwarFLdood5V2YeUR0haXY80ZFqfRZHThP9DPhUdYSk2fNERyoSEa8C/qO6Qw9zK50fJb+mOkTS7HmiIxWIiJWAz1V3aKn2c+RIo8OhI9X4APDE6gg9zLGZ+e3qCEn949WVNGQR8SzgAmBudYuW8Htgo8ycVx0iqX880ZGG7/M4cprmfmBXR440ehw60hBFxBuBF1Z36GE+lplnVUdI6j+vrqQhiYgV6by08wnVLVrCOcBWmbmgOkRS/3miIw3Pe3DkNM0ddK6sHDnSiPJERxqCiHgi8D/AitUtWsJbM/Po6ghJg+OJjjQcR+DIaZqTHTnS6PNERxqwiHgx8NPqDi3hOjqffnxzdYikwfJERxqgiFgGOKq6Q0tIYA9HjjQeHDrSYO0HPLs6Qks4KjNPrY6QNBxeXUkDEhGPBn4HrF7dokUuATbPzPnVIZKGwxMdaXA+jCOnSeYDuzhypPHi0JEGICKeC+xT3aElvDczL6mOkDRcXl1JfRYRq9B5aedTqlu0yKnA9um/8KSx44mO1H+fwZHTJDfT+SkrR440hnyD8kNExErACnRG4DIT//nAny8Abs3Mu+sK1WQRsSOwV3WHlrB3Zl5XHSGpxthdXUVEAOsAfwU8eeKPxf/8MV18mfnAX4BbgT8BvwLOAM7KzHkDyFYLRMQ6wMXAo6tbtMjRmfnW6ghJdUZ+6ETEqsDLgVcBm9IZNSsM6NvdD/wa+ERmfn9A30MNNDGgfwK8tLpFi1wJbJyZd1SHSKozkkMnIp5AZ9i8GngRsFxBxlnAezLzzILvrSGLiEOAT1V3aJEFwFaZeU51iKRaIzF0Jn43vRkPjpuNaouW8AXg73wQcnRFxIbAucDy1S1a5PDM/HB1hKR6rR46EbERnY/Yfw2wdnHOVL4B7JWZC6tD1F8RsQLwG+CZ1S1a5Cxgm8y8vzpEUr3W/dRVRMyhc2pzEJ1rqTbYA1guInbzX74j5+M4cppkHrCr/5xJekBrhk5ErAbsCRwAPKk4pxd/C9wF7F0dov6IiG3pDG41x99l5u/hlpj8AAAYJ0lEQVSrIyQ1R+OvriJifeBAOqciq9TW9MXrM/O71RGanYh4JJ0XRK5b3aJFvp2Zb6qOkNQsjR06EbEdcDDw10AU5/TTzcCGfoBZu0XECcDO1R1a5Bo6/1zdWh0iqVka9wqIiNg2Is6n85kkOzBaIwc6HyZ3zMRPiqmFImInHDlNksDujhxJS9OYoRMRT4+IHwCnARtX9wzYy4C3V0do5iJiXTofGaDm+FRm/rQ6QlIzlV9dRcRjgX+k85DuMqUxw3UL8FeZeVt1iLrjpx830oXAFpl5b3WIpGYqO9GJiBUi4lA6H9O+H+M1cgBWB95RHaEZORBHTpPcDeziyJE0laGf6Ez8rngX4GPA44f6zZvnDjqnOn+uDtHUIuIZwHkM7j1pmrkDMvPz1RGSmm2oJzoRsQ2dl14ehyMHOj8u/97qCE0tIpYFjseR0yQ/cuRI6sZQTnQiYiXgn/AB3KW5B1g/M6+pDtHSRcTHgEOrO7TIn4FnZ+YN1SGSmm/gJzoRsTlwPo6cyawA/EN1hJYuIl4AvKe6Q0vYy5EjqVsDO9GJiLnAYXR+EW/NqyaKLACenplXVofoQRGxKnAR7XzlyKj6cmbuVx0hqT0GcqIz8dqGM+n82LgjZ3pz6fzfSs3yGRw5TXI5cEh1hKR26fuJTkTsB3wKWKmvX3j0LQQ2ysxLq0MEEfFa4OTqDi1yH/C8zDyvOkRSu/TtRCci1oqI/wS+iCOnF3OAj1RHCCJiTeAr1R1awgccOZJ60ZcTnYh4GXACnfc4aXa2yMxzqyPGWUScAryyukOL/AJ4cWYurA6R1D6zPtGJiD2BH+LI6ZePVQeMs4jYBUdOk9wG7ObIkdSrWQ2diPggcDQ+cNxP20bEi6sjxlFErEHnAWQ1x/6ZeVV1hKT26mnoRMSyEXEM8IE+96jjo9UBY+oo4DHVEVrkhMw8oTpCUrvN+Bmdic8W+S6w3UCK9IAXZeYZ1RHjIiJeCZxS3aFFrgY2zMzbqkMktduMTnQiYh3glzhyhuHd1QHjIiIeQeenBdUMC4E3O3Ik9UPXQycingWcDWw0uBwtZoeIeHZ1xJj4JLBudYQW+WRm/qI6QtJo6OrqauJ9VacCqw28SIs7LjN3q44YZRGxDfBzIIpT1HEenQ8GvK86RNJomHboRMTjgF8Daw+lSItbADw5M6+uDhlFEbECnXdZPbW6RQDcBWySmZdXh0gaHVNeXUXEisD3ceRUmQv8fXXECPsAjpwmOcSRI6nfJj3RiYgATgLeMNQiPdSdwBMy85bqkFESERsD5+JnQDXFKZn56uoISaNnqhOdD+DIaYKVgf2rI0ZJRMzFD7pskhuAvaojJI2mpQ6diHgjcPiQWzS5AyeuEdUf7wQ2ro7QIm/JzD9XR0gaTQ8bOhGxKfAN/CmUJlkD2KM6YhRExFPxE72b5F8y80fVEZJG1xLP6ETEI4FLgceVFWky/wtskJn3V4e01cRzZ2cAW1e3CIDLgM0y8+7qEEmj66EnOh/EkdNUTwb+pjqi5fbDkdMU9wK7OHIkDdqiE52IeDpwMT6g2WTnZeZm1RFtFBHr0jlBWLW6RQC8OzP/uTpC0uhb/ETn0zhymm7TiNi2OqKlvoQjpyl+BhxRHSFpPERmPvAeq0uqY9SVUzPzZdURbRIROwMnVHcIgFvpvJX8muoQSePhgROdPSojNCPbTXzYnboQEY8BPlvdoUX2c+RIGqY5Ex+etmt1iGbk3dUBLXIU8JjqCAFwbGZ+uzpC0ngJ4AXAmdUhmpH7gfUz8/fVIU0WETsAP6zuEAC/BzbKzHnVIZLGyxzg6dURmrFlgHdURzRZRKxK5wFk1bsf2NWRI6nCHOBp1RHqyZ4Tz59o6T4BPL46QgB8LDPPqo6QNJ4cOu21InBAdUQTRcTWwNuqOwR03hD/oeoISeMrgCuAp1SHqCc3A0/IzLuqQ5oiIlYALgQ2qG4RdwAbZ+aV1SGSxtccYJXqCPXs0cBbqyMa5nAcOU1xsCNHUrUArgXWqQ5Rz64CnpKZC6pDqkXEc4Bf4yd8N8HJmbljdYQkzQFy2r9KTfZE4A3VEdUmPg/qaBw5TXA9sHd1hCRBZ+gsrI7QrB1UHdAA7wA2qY4QCeyemTdXh0gSeKIzKraIiOdWR1SJiPWBD1Z3CICjMvPU6ghJesAcYOyf7RgRB1YHVIiIAL4GrFDdIi4B3lsdIUmLm0PnYWS13xsiYq3qiAL7AttUR4j5wC6ZOb86RJIWN4fOO2jUfssB+1VHDFNEPAH4ZHWHAHhvZl5SHSFJD+XQGS37RcRy1RFD9DXgEdUR4lQ6b4mXpMZx6IyWNYE3VkcMQ0TsA2xX3SFuBvbITH+oQVIjzQH+UB2hvhr5h5Ij4onAEdUdAmCfzLyuOkKSJuOJzujZPCK2rI4YlImfsjoaWLW6RRydmd+rjpCkqcwBrgHuqw5RX43yqc6+wLbVEeJ/gYOrIyRpOpGZRMRvgWdUx6hv7gPWG7UrhYhYj85ntfgi2loLgRdm5pnVIZI0nTkT//mb0gr127KM2I+aT1xZfR1HThMc6ciR1BYOndG1b0QsXx3RR28DXlwdIS4D3l8dIUndcuiMrscCb6qO6IeIeBLwT9UdYgGwm59+LKlNHhg6F+I7r0ZR6x9KXuzKauXqFvGxzDyvOkKSZmIOQGbeTedIWqNl04h4QXXELL0deFF1hDgf+Eh1hCTN1JzF/vzXZRUapNae6kTEk4FPVHeI+cDumenHUEhqncWHjs/pjKYdI+Jx1REz5ZVVoxyemZdWR0hSLxw6o28usH91RA8OALapjhBn4es2JLVYPPAuvom3Xs8Dxunt1+PiJuDxmXlPdUg3IuIpwEXAStUtY+4u4DmZeUV1iCT1atGJTmbeC5xb2KLBeQywc3VENyJiDp0rK0dOvfc4ciS13ZyH/NenlVRoGNryUPJhwNbVEeJ04F+qIyRpthZdXQFM/CiyH+0+urbJzF9WR0wmIl5I5xfYZapbxtztwLMz8+rqEEmarYee6JxD5zkdjabGnupExGOBb+HIaYKDHTmSRsUSQyczFwBnFLVo8HaceNC3USaeyzkeWLu6RfwgM4+pjpCkfnnoiQ74nM4omwO8qzpiKd4HbFcdIW4G9q6OkKR+WuIZHYCIeAbw25ocDcF84EmZeX11CEBEvIjOuPbKqt5OmXlSdYQk9dPDTnQy8zKgEb8IaiCWB/6+OgIWPZdzAo6cJvi2I0fSKFra1RV4fTXq9ouIR1YGTDyX8018LqcJ/kQ7Pz1bkqbl0BlPq1L/C9v7gZcWN6hjn8y8uTpCkgbhYc/oAETEOsC1w8/REN0IrJeZdw/7G0fEi+mM6cmGtobnmMzcszpCkgZlqb/QZOZ1wP8MuUXD9Vhg6L/ARcSadJ7LceTUuxo4uDpCkgZpql9svL4afe+MiLnD+maLPZez1rC+pyaVwJ6ZeXt1iCQNkkNnvK0HHDDE7/cPwLZD/H6a3Bcy8/TqCEkatKU+owMQEY+g8wFiQ/sdv0rcATwjM/84yG8SEdsCP8Erqya4EtgoM++qDpGkQZv0F52JI+1zh9iiGqsAnx3kN4iIZwL/hiOnCRYCuztyJI2L6X7h8fpqPLw2Il49iC8cEesCPwZKP7dHixyRmWdVR0jSsEx6dQUQEVsDvxhejgpdTecK685+fcGJDyU8E3hmv76mZuW3wKaZOb86RJKGZboTnbPpPMOh0fcE4B/79cUiYnng+zhymmIBsJsjR9K4mXLoZOZ9eKIzTg6OiI1m+0Umfoz8eGCb2SepTz6SmedXR0jSsHXzcKjP6YyPZYCvTpzGzMZngNf3oUf9cR7w0eoISarQzdA5deAVapLNgWMjInr5myPiPQz3s3k0tQXAXpm5oDpEkipMO3Qy81I6bzfW+HgjcMRM/6aI2BX4eP9zNAufycyLqiMkqUq3n2viJ6iOn0Mi4qBu/+KI2A74OtDTSZAG4irgg9URklSp26Hjczrj6ciImPZZm4h4LXAysOzgkzQDb+/nxwVIUhs5dDSVOcBxEfHSyf6CiWdyvgesPLQqdeM7mfnD6ghJqtbV0MnMa4DLB9yiZloB+K+I+HhELDqxiYg1I+JY4BN4XdU0twFdXztK0iib8pORl/gLIz4PvH2wOWq46+i8mHMF4G/wqqqp3p6ZX6iOkKQmmMnQeTWdT7qV1FznAM/PzIXVIZLUBDMZOisDN9H53byk5llA511WF1eHSFJTdPswMhM/vfHTAbZImp0jHTmStKSuh86EUwZSIWm2/kAfX8oqSaNipkPnBwOpkDRb+2fmXdURktQ0Mxo6Ez9mfsGAWiT15tuZ+aPqCElqopme6IDXV1KT+Jk5kjQFh47Ubu/NTF+6K0mT6PrHyxf9DREBXAusPZAiSd36FfCCnOk/xJI0RmZ8ojPxL1UfSpZqLQD2deRI0tR6uboCr6+kap/KzEuqIySp6WZ8dQUQESvR+ZTkFfteJGk61wNPzcw7qkMkqel6OtGZ+LyO0/vcIqk7hzpyJKk7vV5dgddXUoXfAMdWR0hSW/R0dQUQEesA1wDR1yJJU9kqM/+7OkKS2qLnE53MvA44v48tkqZ2oiNHkmZmNldX4PWVNCx3A++pjpCktnHoSO1wRGZeXR0hSW3T8zM6i75AxDXA4/qTI2kprgU2yMw7q0MkqW1me6IDfkqyNGiHOnIkqTf9GDpeX0mDcy5wfHWEJLVVP66uVgBuBlbqS5GkByyg89LOc6tDJKmtZn2ik5n3AKf1oUXSkg535EjS7PTj6gq8vpL67SfAJ6ojJKntZn11BRARa9P5yRA/JVmaveuB52TmjdUhktR2fTnRyczr6byDR9LsLAR2ceRIUn/06+oKvL6S+uHDmfmz6ghJGhV9uboCiIjnABf05YtJ4+nnwLaZubA6RJJGRd+GDkBEXA08vm9fUBofNwEbTbwsV5LUJ/28ugI/JVnq1Z6OHEnqv34PHZ/TkWbus5npPzuSNAD9vrpans6nJK/cty8qjbYLgS0zc351iCSNor6e6Ez8y/rUfn5NaYTdCezkyJGkwen31RV4fSV164DMvLw6QpJGWV+vrgAiYk06n+zqpyRLkzsxM3eujpCkUdf3oQMQEWcDW/T9C0uj4f+AjTPz9uoQSRp1g7i6Aq+vpMncB+zsyJGk4XDoSMP1D5l5bnWEJI2LgVxdAUTEH4AnDuSLS+10KrB9DuofOknSwwzqRAf8lGRpcTcCuzlyJGm4Bjl0vL6SOhLYPTP/VB0iSeNmkEPnZ8AdA/z6UlscmZk/ro6QpHE0sKGTmfcCPxnU15da4jzgsOoISRpXgzzRAa+vNN7m0XnFw73VIZI0rgY9dH4I3D/g7yE11d9n5pXVEZI0zgY6dDLzz8CZg/weUkP9KDOPro6QpHE36BMdgO8N4XtITXIr8NbqCEnScIbOyXR+vFYaFwdm5nXVEZKkIQydzPwj8OtBfx+pIU7OzOOrIyRJHcM40QGvrzQebgL2q46QJD3IoSP1z9sy88bqCEnSg4YydDLzCuCSYXwvqciJmflv1RGSpCUN60QHPNXR6PoT8PbqCEnSwzl0pNnbJzNvqY6QJD3c0IZOZl4M+CmxGjXfyExfdSJJDTXMEx3wVEej5Rrg4OoISdLkHDpS7/bKzNuqIyRJkxv20DkXuHbI31MahC9l5k+qIyRJUxvq0MnMpPNKCKnNfg+8qzpCkjS9YZ/oAHy34HtK/ZLAWzLzjuoQSdL0KobOL+l8VL7URp/NzDOqIyRJ3Rn60MnM+4HvD/v7Sn3wO+DQ6ghJUvcqTnTA6yu1z/3A7pl5d3WIJKl7VUPndOD2ou8t9eKIzDy7OkKSNDMlQycz7wV+UPG9pR78FvhAdYQkaeaqTnTADw9UOywAdsvM+dUhkqSZqxw6PwJ83kFN99HMPL86QpLUm7Khk5l3AT+u+v5SFy4APlodIUnqXeWJDnh9pea6l85PWd1XHSJJ6l310DkF8BcSNdEHM/OS6ghJ0uyUDp2JNz+fVtkgLcU5wD9VR0iSZq/6RAfg+OoAaTF307myur86RJI0e00YOv8OzKuOkCa8LzMvr46QJPVH+dCZ+Omrf6vukOi8cPao6ghJUv+UD50J/1odoLF3J7BHZi6sDpEk9U9Ths4vgKuqIzTW3pWZ/1cdIUnqr0YMncxM4LjqDo2t04AvVUdIkvovOhujXkSsD/yuukNj53bg2Zl5dXWIJKn/GnGiA5CZVwBnV3do7Py9I0eSRldjhs4EH0rWMP0gM79eHSFJGpzGXF0BRMSjgOuB5atbNPJuAp6VmTdUh0iSBqdRJzqZeSvwg+oOjYV9HDmSNPoaNXQmHFsdoJH3jcw8uTpCkjR4jbq6AoiIZYFrgTWqWzSSrgI2zMzbq0MkSYPXuBOdzLwP+FZ1h0bSQjov7HTkSNKYaNzQmeD1lQbhyMw8ozpCkjQ8jbu6ekBE/BZ4RnWHRsYlwOaZOb86RJI0PE090QFPddQ/9wJvduRI0vhp8tA5ns4zFdJsHZ6ZF1VHSJKGr7FXVwAR8RNgu+oOtdovgRdlpqNZksZQk090wFdCaHbm0fkpK0eOJI2ppg+d7wB/qo5Qax2cmb+vjpAk1Wn00MnMe4HPV3eolb7vCzslSY1+RgcgIlYH/gisVN2i1rgReHZm3lgdIkmq1egTHYDMvAX4RnWHWmVvR44kCVpwogMQEU8BLqcFw0zljs7Mt1ZHSJKaoRVDByAiTgZeW92hRvs9sFFmzqsOkSQ1Q5tOSD5VHaBGWwjs5siRJC2uNUMnM88Ezq3uUGP988T/j0iStEhrhs4ET3W0NBcBh1dHSJKapzXP6ABExDLAlcB6xSlqjvnAZpl5aXWIJKl5WnWik5n3A0dVd6hR3ufIkSRNplUnOgARsSqdDxBcrbpF5c4AXuK7rCRJk2nViQ7AxE/VfKW6Q+Vuxxd2SpKm0bqhM+GzwILqCJU6MDOvqo6QJDVbK4dOZl4DnFTdoTLfy8x/rY6QJDVf657ReUBEbAycB0R1i4bqBuBZmXlTdYgkqflaeaIDkJkXACdWd2jo9nLkSJK61doTHYCIeAKdl32uUN2iofhKZu5bHSFJao/WnugAZObVwJHVHRqK/wUOqY6QJLVLq090ACJiFeAKYK3qFg3M/cDWmfmr6hBJUru0+kQHIDPvAN5f3aGB+qQjR5LUi9af6ABExBzgfGCj6hb13QXAFpl5X3WIJKl9Wn+iAzDx6bjvqO5Q390D7OrIkST1aiSGDkBmng6cUt2hvjo0My+rjpAktddIXF09ICI2AC4Blq1u0az9EHhVjtL/g0qShm5kTnQAMvNy4IvVHZq1q4DdHDmSpNkaqRMdgIhYHbgSeFR1i3pyL50fJT+3OkSS1H4jdaIDkJm3AB+q7lDP3unIkST1y8id6ABExLLAb4H1q1s0I9/OzDdVR0iSRsfInegATPw48sHVHZqR3wFvrY6QJI2WkRw6AJn5n8B3qjvUlbuB12fmvOoQSdJoGdmhM+Eg4LbqCE1r/8y8pDpCkjR6RnroZOb1wGHVHZrS1zPzG9URkqTRNJIPIy9u4j1YZwFbVLfoYS4GtszMu6tDJEmjaeSHDkBEbAicB8ytbtEi84BNM/OK6hBJ0uga6aurB2TmxcCnqzu0SAJvceRIkgZtLE50ACJiJTqfrbNecYrg4Mw8qjpCkjT6xuJEByAz7wL2r+4QH3HkSJKGZWxOdB4QEScBb6zuGFNfzEzHpiRpaMZx6KwN/A+wWnXLmDkJ+NvMXFgdIkkaH2NzdfWAic/WObS6Y8z8F/BmR44kadjGbuhM+BJwdnXEGPhfYC/glRPvH5MkaajG7urqARHxbOA3wHLVLSPocuCjwAmZeX91jCRpfI3riQ4T71Z6GnA04GnD7CWdT6D+W+AZmXmcI0eSVG1sT3QWFxHrAC8HtgO2BdaoLWqVc+g8aPxvmfnH6hhJkhbn0HmIiAhgIzqjZytgQ/yQwcUtpHPl9x3gO5l5VXGPJEmTcuh0ISJWA55NZwBtOPGfzwJWruwakjvoPLh9FvDfwNmZeXttkiRJ3XHo9GjirehP5sHhsyEPnv5EXdmszAOuAC6jM27+G7jEZ20kSW3l0OmziHgES57+PBNYF1gbWL4w7QHzgavo/GTU7xb74/KJzxiSJGlkOHSGZOLZn0cDj1vKH48FVpz4Y4VJ/nx5Oj8dNn8pf9y72J/fAtwA3Djxn0v8kZl/Gfj/spIkNcT/B+UL4fgm2GKcAAAAAElFTkSuQmCC;" parent="ZEkZ2hJIipyatHiksb2i-1" vertex="1">
          <mxGeometry x="240.39999999999998" y="397" width="9.6" height="10" as="geometry" />
        </mxCell>
        <mxCell id="Ci3oL-zlfUf6QbDjgH_t-71" value="&lt;font style=&quot;font-size: 8px;&quot;&gt;Status&lt;/font&gt;" style="rounded=0;whiteSpace=wrap;html=1;" parent="ZEkZ2hJIipyatHiksb2i-1" vertex="1">
          <mxGeometry x="140" y="384" width="40" height="10" as="geometry" />
        </mxCell>
        <mxCell id="Ci3oL-zlfUf6QbDjgH_t-72" value="&lt;font style=&quot;font-size: 8px;&quot;&gt;Rent&lt;/font&gt;" style="rounded=0;whiteSpace=wrap;html=1;" parent="ZEkZ2hJIipyatHiksb2i-1" vertex="1">
          <mxGeometry x="180" y="384" width="40" height="10" as="geometry" />
        </mxCell>
        <mxCell id="UlxjXkHBZhFgNtTTELG_-0" value="" style="rounded=0;whiteSpace=wrap;html=1;" parent="ZEkZ2hJIipyatHiksb2i-1" vertex="1">
          <mxGeometry x="90" y="140" width="620" height="100" as="geometry" />
        </mxCell>
        <mxCell id="UlxjXkHBZhFgNtTTELG_-1" value="" style="ellipse;whiteSpace=wrap;html=1;" parent="ZEkZ2hJIipyatHiksb2i-1" vertex="1">
          <mxGeometry x="113.5" y="140" width="380" height="50" as="geometry" />
        </mxCell>
        <mxCell id="UlxjXkHBZhFgNtTTELG_-2" value="Find a roommate" style="rounded=0;whiteSpace=wrap;html=1;" parent="ZEkZ2hJIipyatHiksb2i-1" vertex="1">
          <mxGeometry x="243.9" y="150" width="100" height="30" as="geometry" />
        </mxCell>
        <mxCell id="UlxjXkHBZhFgNtTTELG_-3" value="Find a Room" style="rounded=0;whiteSpace=wrap;html=1;fillColor=#dae8fc;strokeColor=#6c8ebf;" parent="ZEkZ2hJIipyatHiksb2i-1" vertex="1">
          <mxGeometry x="143.5" y="150" width="95" height="30" as="geometry" />
        </mxCell>
        <mxCell id="UlxjXkHBZhFgNtTTELG_-4" value="My Posts" style="rounded=0;whiteSpace=wrap;html=1;" parent="ZEkZ2hJIipyatHiksb2i-1" vertex="1">
          <mxGeometry x="350" y="150" width="95" height="30" as="geometry" />
        </mxCell>
        <mxCell id="UlxjXkHBZhFgNtTTELG_-5" value="" style="ellipse;whiteSpace=wrap;html=1;" parent="ZEkZ2hJIipyatHiksb2i-1" vertex="1">
          <mxGeometry x="558" y="140" width="120" height="50" as="geometry" />
        </mxCell>
        <mxCell id="UlxjXkHBZhFgNtTTELG_-6" value="Create a Post" style="rounded=0;whiteSpace=wrap;html=1;" parent="ZEkZ2hJIipyatHiksb2i-1" vertex="1">
          <mxGeometry x="570.5" y="150" width="95" height="30" as="geometry" />
        </mxCell>
        <mxCell id="UlxjXkHBZhFgNtTTELG_-7" value="Filter" style="rounded=1;whiteSpace=wrap;html=1;" parent="ZEkZ2hJIipyatHiksb2i-1" vertex="1">
          <mxGeometry x="143.5" y="200" width="97.25" height="30" as="geometry" />
        </mxCell>
        <mxCell id="UlxjXkHBZhFgNtTTELG_-8" value="" style="shape=image;html=1;verticalAlign=top;verticalLabelPosition=bottom;labelBackgroundColor=#ffffff;imageAspect=0;aspect=fixed;image=https://cdn0.iconfinder.com/data/icons/ui-interface-6/24/adjust-128.png" parent="ZEkZ2hJIipyatHiksb2i-1" vertex="1">
          <mxGeometry x="147.12" y="200" width="28" height="28" as="geometry" />
        </mxCell>
        <mxCell id="ZEkZ2hJIipyatHiksb2i-33" value="&lt;div&gt;landpage banner&lt;br&gt;&lt;/div&gt;" style="text;html=1;strokeColor=none;fillColor=none;align=center;verticalAlign=middle;whiteSpace=wrap;rounded=0;" parent="ZEkZ2hJIipyatHiksb2i-1" vertex="1">
          <mxGeometry x="600" y="210" width="110" height="30" as="geometry" />
        </mxCell>
      </root>
    </mxGraphModel>
  </diagram>
</mxfile>
